# File exported by ZBrush version 2026
# www.zbrush.com
g ZBrushPolyMesh3D
#Vertex Count 480
#UV Vertex Count 1920
#Face Count 480
#Auto scale x=1.000000 y=1.000000 z=1.000000
#Auto offset x=-0.000000 y=-0.000000 z=-0.000000
mtllib echo coin UV.mtl
usemtl defaultMat
v 12.68474578 14.38840103 -1.54530155
v 13.75609874 14.3846426 -1.53255534
v 13.66915893 14.36462307 0.55004084
v 12.6171379 14.46395492 0.54505801
v 11.37663936 14.43655014 -1.44140732
v 11.3809328 16.17762565 -1.81384873
v 12.93472576 16.14678764 -1.71669125
v 14.3531332 15.88221359 -1.68031883
v 11.31260776 14.44074535 0.54836094
v 9.97821998 13.71764659 0.52439737
v 9.99543857 13.85575962 -1.70639562
v 12.58950805 14.4437828 2.75295138
v 11.30913066 14.46496868 2.74595832
v 10.0521326 13.66061401 2.80162358
v 8.73716735 13.26578235 2.83795046
v 8.71972942 13.29440212 0.51096862
v 11.37366771 14.41788291 4.95264577
v 10.03487014 14.02541637 5.11374473
v 8.69261741 13.64840889 5.24489784
v 7.623806 13.67559051 4.98309516
v 7.71682548 13.67595195 2.77682042
v 9.75959301 16.12212562 5.04325628
v 8.238204 15.78618049 5.06062221
v 6.92015314 15.35420608 5.16788435
v 5.95576763 14.82525253 4.38984108
v 6.87045002 13.70669364 4.68570566
v 7.75915145 17.73238563 5.07254076
v 6.23746728 17.0819168 4.4651494
v 4.80835628 16.18362236 4.37009191
v 3.71837353 14.99883556 4.42656946
v 5.1912055 14.10937118 4.97422933
v 5.30007123 18.77132034 4.43907642
v 3.58029103 17.57344627 4.26776027
v 2.18342685 16.02953338 4.4641385
v 1.1983757 14.125844 4.19529056
v 2.93718171 13.57800483 4.90776348
v 2.27734851 19.00972557 4.24374532
v 0.63370132 17.05975151 4.38359022
v -0.62469595 14.8313837 4.31245565
v -1.32603836 12.37662315 4.47049856
v 0.58723962 12.16450309 5.17484045
v -1.02872455 18.1885147 5.26443672
v -2.48200058 15.57737922 5.23530626
v -3.36728 12.72723484 5.20140934
v -3.70450329 9.7678709 5.24681091
v -1.49588656 9.86263179 4.63628292
v -2.63879346 15.66477012 2.82216835
v -3.53786706 12.78096294 2.80720782
v -3.86495304 9.78013038 2.79121756
v -3.51414942 6.77090692 2.77186107
v -3.39993214 6.78377294 5.22295522
v -3.4944036 12.79631137 0.52743893
v -3.89633894 9.81096744 0.50769656
v -3.42278647 6.81563663 0.50060683
v -2.62276244 3.85934162 0.48116403
v -2.63239002 3.84711074 2.75882172
v -3.79012894 9.85258388 -1.81507074
v -3.46904015 6.84682321 -1.80042374
v -2.48831415 3.94537425 -1.79016006
v -0.85437947 1.2996062 -1.64899957
v -1.07676923 1.15479755 0.48631998
v -1.34680318 7.3386774 -1.41520476
v -0.52786302 4.86296224 -1.00789821
v 0.79557043 2.53258299 -0.83169853
v 2.56774067 0.45989543 -0.87857902
v 1.13591396 -1.11120426 -1.8725872
v 1.27328717 5.75267982 -0.98541027
v 2.36424589 3.68187522 -1.01425671
v 3.88457751 1.94888472 -1.03170061
v 5.67504215 0.59868043 -1.89492964
v 4.79142475 -1.1259644 -1.22355306
v 3.89333605 4.79142856 -1.10505604
v 5.17024183 3.36054229 -1.01821517
v 6.64124727 2.28781819 -1.74096822
v 8.40383148 1.59222304 -1.66694259
v 7.85635948 -0.33473026 -1.75499904
v 6.21180772 4.73439455 -1.80999541
v 7.46528101 3.94129681 -1.74269521
v 8.87144756 3.48229241 -1.70638907
v 10.40900707 3.28724694 -1.73399555
v 10.28750419 1.2733159 -1.76528227
v 8.12366867 5.31392622 -1.51742613
v 9.23993206 5.20073318 -1.56129801
v 10.49180507 5.13850975 -1.51123356
v 11.73343086 5.54673767 -1.79107976
v 11.99015808 3.3655796 -1.50981462
v 9.2675333 5.19834089 0.53460598
v 10.5387907 5.11775541 0.54826253
v 11.82842159 5.52748346 0.5270031
v 13.04384708 5.82482338 0.52505219
v 13.02128028 5.67600727 -1.68986129
v 10.57933139 5.00592422 2.73921489
v 11.83872699 5.57888937 2.78538084
v 13.08224296 5.7993164 2.78234982
v 14.14942073 6.01652908 2.7627983
v 14.11707782 5.94839 0.52564078
v 11.86205005 5.46302557 5.1836481
v 13.13443946 5.68984794 5.17091083
v 14.21962356 6.04728269 5.19153595
v 15.17616367 5.91008472 4.65388441
v 15.19495964 5.89976787 2.6899991
v 13.65751838 3.6217153 5.13808345
v 15.04751586 4.12919187 4.94099807
v 16.13084411 4.82712125 4.60779285
v 16.96597099 5.92635345 4.56603336
v 15.69680309 6.63442277 4.68900346
v 15.84350395 2.42000484 4.45942783
v 17.38756179 3.47865605 4.54058504
v 18.5381031 4.95028972 4.51411676
v 19.27147293 6.57946014 5.09128332
v 17.45726394 7.1559391 5.19924545
v 18.66641235 2.14977145 4.55785083
v 20.11352539 3.98682999 4.42538547
v 21.06837654 6.08017444 4.53367567
v 21.58470726 8.23896503 5.11375141
v 19.64611244 8.46218681 5.16579532
v 21.76075172 2.93976736 4.43398571
v 22.92538642 5.40801811 4.44035959
v 23.55794334 7.97817182 4.97775983
v 23.56119918 10.59526538 4.40874481
v 21.65954399 10.47474193 5.09491109
v 24.86607933 4.66516447 5.28942871
v 25.69642639 7.66396999 5.28559875
v 25.87299537 10.76569938 5.36845493
v 25.21180915 13.78903579 5.20691394
v 23.19766807 13.20885086 4.43696212
v 25.81219673 7.63335228 2.83173179
v 26.02679634 10.77158165 2.83272647
v 25.47734069 13.8664751 2.82631897
v 24.22530555 16.74703598 2.82710075
v 24.04340744 16.64054107 5.22243881
v 26.00568008 10.76402664 0.52514839
v 25.3946228 13.84272193 0.53099358
v 24.23326301 16.74950218 0.5227642
v 22.46592712 19.32830047 0.51895302
v 22.51656723 19.37556457 2.83767724
v 25.32786941 13.81824016 -1.77100074
v 24.1765232 16.70674133 -1.84308171
v 22.43901062 19.29177856 -1.93181407
v 20.16859436 21.43433952 -1.87040889
v 20.22991371 21.52159309 0.52077758
v 22.22789955 15.6627655 -1.61698877
v 20.73725318 17.85471153 -1.77894723
v 18.8266201 19.72514915 -1.75727999
v 16.5831089 21.14264488 -1.58642983
v 17.55653953 23.10364723 -1.87852609
v 19.32594871 16.7055931 -1.09289372
v 17.70806312 18.27868652 -1.13863849
v 15.75865554 19.40562629 -1.08513224
v 13.66451549 20.05207634 -1.6675328
v 14.1329441 22.02717208 -1.54220247
v 16.59057045 16.79743385 -1.09082162
v 14.97868537 17.61402893 -1.18090546
v 13.2520008 18.07351303 -1.72738933
v 11.41199493 18.21483421 -1.67475855
v 11.48696327 20.31546402 -1.68659043
v 9.33738708 20.18744278 -1.518978
v 9.07779884 22.32861518 -1.1357423
v 11.5983572 22.4111042 -1.43264877
v 9.56765556 18.08306503 -1.74608981
v 7.8048129 17.73255538 -1.6373744
v 7.24373149 19.72981452 -1.75205957
v 9.76739025 15.99429225 -1.64793682
v 8.25253009 15.71540546 -1.70710992
v 6.92155122 15.39234638 -1.73274719
v 6.27270126 17.17707252 -0.98251551
v 8.6576662 13.53629303 -1.87336897
v 7.648952 13.64040947 -1.66156745
v 6.94621706 13.6659832 -1.49785804
v 5.90418291 14.94581031 -0.96874404
v 7.73418378 13.64456272 0.55944174
v 6.94994831 13.67062473 0.58676743
v 6.46975803 13.20915985 0.58509862
v 6.39799451 13.19443512 -1.48530483
v 6.93627643 13.64373874 2.74625682
v 6.52911615 13.19520664 2.75614523
v 6.35389661 12.48926353 2.77070593
v 6.34639978 12.49945926 0.56782853
v 6.47798252 13.1712284 4.83609676
v 6.30509471 12.48849487 4.96282196
v 6.37198829 11.56495666 5.14310026
v 6.53216886 11.57686424 2.78555345
v 4.67183351 13.0107851 5.12927722
v 4.38321781 11.72897911 5.10205364
v 4.30867576 10.26281356 4.97721052
v 6.32921218 10.36007118 5.11718702
v 2.50006103 11.93084049 5.1904993
v 2.39525699 10.13860225 5.15560054
v 2.6056559 8.28536415 5.08922195
v 4.46112537 8.68419265 5.21261739
v 0.45529142 9.99759388 5.13202762
v 0.71560037 7.82013225 5.07622671
v 1.39310276 5.74111604 4.5327425
v 3.13806796 6.50985479 4.86195707
v -1.25802004 7.31647825 4.96629381
v -0.44085991 4.87776184 4.44584178
v 0.87584495 2.60673379 4.41196775
v 2.48579573 3.75701952 4.50992202
v -2.46794223 3.92559146 5.21622467
v -0.87038987 1.35014355 5.07942295
v 1.09076309 -1.00631344 5.26568603
v 2.61083793 0.60598504 4.40492725
v -1.0561577 1.18618428 2.74739909
v 1.0063591 -1.16715812 2.76640033
v 3.49339151 -3.14054417 2.79643058
v 3.61333584 -2.83206248 5.24742031
v 0.95785385 -1.26359677 0.48254743
v 3.56946182 -3.09921264 0.49805417
v 6.51679801 -4.35398197 0.51866596
v 6.46072053 -4.37487793 2.81855297
v 3.68053937 -2.9993546 -1.86433267
v 6.59583425 -4.27571201 -1.79554653
v 9.72132396 -4.97986793 -1.85711181
v 9.68033981 -4.96244669 0.52918183
v 7.27580165 -2.20349121 -1.08448565
v 9.94929599 -2.78750896 -1.01534676
v 12.67566299 -2.68546891 -1.03084182
v 12.93835926 -4.90009307 -1.86295914
v 10.12725925 -0.7639203 -1.6845113
v 12.44469833 -0.69365847 -1.67053091
v 14.74560546 -0.13028091 -1.6213839
v 15.33153247 -2.07076525 -0.96865791
v 12.21325302 1.32789313 -1.76735341
v 14.08491516 1.75323832 -1.42495179
v 15.74504947 2.57421422 -1.13748431
v 16.75788307 0.89365142 -1.11067247
v 13.53088855 3.6776967 -1.6659578
v 14.89974689 4.2309122 -1.46285724
v 16.05526351 4.99140167 -1.49629271
v 17.22649765 3.69531393 -1.09061145
v 14.07765483 5.99983024 -1.76845192
v 15.14085483 5.94651508 -1.37243139
v 15.73491478 6.7437272 -1.38498139
v 16.86499023 6.03969001 -1.4359399
v 15.18085956 5.89336824 0.55695861
v 15.69303131 6.73372507 0.54626947
v 15.61100769 7.77110719 0.5265659
v 15.59395694 7.80409526 -1.63371801
v 15.6516819 6.6974616 2.69787907
v 15.68546485 7.7164874 2.73930358
v 15.71558857 8.8434658 2.76272988
v 15.69637775 8.90096855 0.52397823
v 15.66596603 7.65150356 5.01867008
v 15.66580104 8.81712245 5.17707681
v 15.77226924 10.07707119 5.04742288
v 15.82691574 10.12002372 2.75574326
v 17.72645759 8.64648914 5.19585847
v 17.74590301 10.19912624 5.20724105
v 17.52661705 11.73687553 5.16047668
v 15.55265808 11.32092094 5.09080791
v 19.68664741 10.33319854 5.1236763
v 19.39804077 12.17967701 5.10218191
v 18.76574897 13.93623352 5.00589132
v 17.07358169 13.15472698 5.12013292
v 21.28986549 12.6763153 5.08936119
v 20.48178863 14.75043487 4.65981721
v 19.24763679 16.63262748 4.50388288
v 17.80423545 15.44777393 4.52312755
v 22.15947723 15.62144184 4.89545154
v 20.64678001 17.78316879 5.11632013
v 18.74734878 19.64271163 5.06531333
v 17.62566566 18.18492507 4.54509496
v 22.30552673 19.19719314 5.29584455
v 20.04909515 21.3041706 5.23135519
v 17.45266914 22.94535064 5.25183486
v 16.53235626 21.07152938 4.84066104
v 20.24667358 21.55090713 2.83564424
v 17.57247543 23.15120124 2.83511686
v 14.69182682 24.21611213 2.834275
v 14.6221466 24.02537536 5.26755046
v 17.61297035 23.2196064 0.52135157
v 14.70504379 24.21603584 0.52432447
v 11.7091608 24.52275657 0.53783255
v 11.69299221 24.52562713 2.81892299
v 14.70600795 24.18043899 -1.8644092
v 11.72524547 24.57224082 -1.75670588
v 8.75865173 24.52026176 -1.85128641
v 8.74082469 24.5108509 0.52914184
v 5.86011886 23.78397941 0.53358125
v 5.8525896 23.73206138 2.8253529
v 8.71201896 24.5364418 2.82811498
v 5.9162302 23.72533607 -1.79374003
v 3.22539854 22.46622276 -1.86199629
v 3.17756009 22.47986602 0.52851188
v 6.64664983 21.72188186 -1.08931124
v 4.34424829 20.66387176 -1.02456593
v 2.26558899 19.14613723 -0.87944155
v 0.82811999 20.63084602 -1.87806868
v 5.34277486 18.92970275 -0.91921651
v 3.5688796 17.74299812 -0.99892681
v 2.14302063 16.11043357 -0.83754837
v 0.5845977 17.15402793 -1.02053475
v 4.75691032 16.35821342 -0.93247318
v 3.62547445 15.12882137 -0.98926866
v 2.90929198 13.60365486 -1.42082941
v 1.19022452 14.15507698 -0.68875718
v 5.10715961 14.18603801 -1.42281222
v 4.65673255 13.06053543 -1.68517732
v 4.43426418 11.73480606 -1.63630724
v 2.52372622 11.91961765 -1.76809883
v 6.33250808 12.51653194 -1.55766534
v 6.47385501 11.59600734 -1.71398425
v 6.31975412 10.39594078 -1.60414266
v 4.37449502 10.26441764 -1.5151726
v 6.456954 11.5891695 0.54506403
v 6.35862731 10.42134761 0.53700512
v 6.36923456 9.08619213 0.53552395
v 6.38564062 9.0525093 -1.61785137
v 6.36356639 10.40880203 2.76876545
v 6.43153524 9.08328342 2.76061582
v 6.47355842 7.79814958 2.74356031
v 6.43908977 7.79612684 0.54068082
v 6.39040851 9.03346443 5.08998107
v 6.51030111 7.764431 4.98064947
v 6.687325 6.57826995 4.83644056
v 6.7063179 6.63984823 2.7310009
v 4.84108448 7.16183185 5.16748762
v 5.47724247 5.84659433 4.48481512
v 6.34266328 4.69091939 5.19136858
v 7.06446361 5.48134899 4.58866643
v 4.0183072 4.83209705 4.48994255
v 5.3032999 3.40007448 4.51685953
v 6.7690587 2.31457233 5.15811967
v 7.58983564 3.88991212 5.16721534
v 3.98701977 2.05247998 4.49533939
v 5.77041721 0.70990896 5.2201333
v 7.89973592 -0.23559971 5.18148708
v 8.52925682 1.59295213 5.0783925
v 4.75850677 -0.968019 4.78626489
v 7.2264347 -2.04173493 4.65827655
v 9.87422752 -2.63380503 4.4430933
v 10.14935302 -0.71135205 5.11289739
v 6.49932289 -4.10670471 5.22612333
v 9.60379028 -4.81990289 5.31919622
v 12.80244636 -4.75240802 5.27659845
v 12.58699321 -2.61151933 4.54340887
v 9.63223266 -4.99549341 2.83600473
v 12.88214492 -5.05273008 2.84881305
v 16.03473472 -4.21559095 2.84058809
v 15.9292612 -4.01987934 5.26722002
v 12.91312789 -4.98155498 0.52683585
v 16.06937789 -4.21289587 0.52944606
v 19.02257156 -2.84271383 0.52313959
v 19.02547645 -2.88909316 2.84568715
v 16.05903244 -4.09702014 -1.82987213
v 18.93556594 -2.66915369 -1.83360683
v 21.49372291 -0.73036372 -1.93620598
v 21.53147125 -0.77927887 0.52341055
v 17.80936622 -0.83255314 -1.04459726
v 20.03207778 0.81080716 -0.8797844
v 21.76676178 2.91199541 -1.03829431
v 23.51733017 1.75156307 -1.89904868
v 18.57335472 2.29715013 -1.2087754
v 20.0338974 4.04370212 -1.0226947
v 21.05640792 6.09238624 -1.09681308
v 22.98730468 5.34767389 -1.01621401
v 18.3989067 5.10291957 -1.14538824
v 19.20689392 6.64222669 -1.83167934
v 19.6210823 8.5518713 -1.7300657
v 21.62440109 8.2592926 -1.73329258
v 17.37823867 7.32424926 -1.69585967
v 17.63986206 8.79212856 -1.77192533
v 17.66417694 10.35915851 -1.7760421
v 19.67439079 10.4429636 -1.72121691
v 15.58448219 8.98066997 -1.71745753
v 15.76600551 10.26246166 -1.55276906
v 15.50621414 11.51981926 -1.64492118
v 17.44683456 11.90533065 -1.74281668
v 15.72435951 10.18528461 0.53757816
v 15.60770607 11.45814991 0.54761332
v 15.29615688 12.54366207 0.55570608
v 15.28875255 12.62629985 -1.65049278
v 15.64099597 11.39452076 2.76349091
v 15.26803207 12.49568557 2.77218508
v 15.09407901 13.46402359 2.73817634
v 15.19881439 13.53058147 0.5789296
v 15.27071189 12.48360824 5.07326889
v 15.25584125 13.49530792 4.7333579
v 14.65837097 14.27383518 4.63437128
v 14.57732772 14.20349311 2.72343182
v 16.36762046 14.44605445 5.13120508
v 15.4402771 15.29653072 4.53947925
v 14.27732372 15.89062404 5.10399007
v 13.69312858 14.3956995 4.86906909
v 16.50803184 16.70395469 4.52857208
v 14.94906234 17.59640121 4.69779872
v 13.21699714 18.09760665 5.12305021
v 12.8828144 16.22027397 5.11222267
v 15.7053442 19.32349777 4.56054163
v 13.62748813 20.01128387 5.10445737
v 11.44433784 20.27091217 5.09783363
v 11.37896919 18.26830482 5.07584619
v 14.07922744 21.95583534 4.85683059
v 11.54518222 22.30616378 4.75549697
v 9.0176115 22.17587661 4.48511028
v 9.28027629 20.12255096 5.02756309
v 11.66748428 24.44696235 5.21665334
v 8.71888923 24.32120132 5.24147892
v 5.89313983 23.56265068 5.22640132
v 6.60620546 21.55797195 4.48343229
v 4.32986068 20.47165679 4.55161619
v 7.19663953 19.62931633 5.08427953
v 3.24809694 22.29096412 5.26912403
v 0.9016745 20.47813606 5.2865982
v 3.1633358 22.45496177 2.82901954
v 0.76447099 20.63703918 2.8334403
v -1.2241131 18.34714317 2.83186674
v 0.84402185 20.5822258 0.53094828
v -1.15937459 18.31800651 0.52913606
v -2.65886259 15.69073677 0.52803534
v -1.12865161 18.30937004 -1.84084868
v -2.58362293 15.66874885 -1.81063425
v -3.45608973 12.81486129 -1.76688206
v -0.65621388 14.88714885 -0.94375288
v -1.36507451 12.42687606 -0.96036696
v -1.55275678 9.9122219 -1.1397289
v 0.5964297 12.16975021 -1.74659812
v 0.42629313 10.00230121 -1.71299111
v 0.6200174 7.80642986 -1.72423899
v 2.41434693 10.12458705 -1.73980426
v 2.56259656 8.2812004 -1.63735437
v 3.04514074 6.46086025 -1.55945622
v 4.49003028 8.69057083 -1.75105536
v 4.81817054 7.16727876 -1.7637006
v 5.42770433 5.9170556 -0.95486193
v 6.42420625 7.77562618 -1.53892517
v 6.672616 6.67286586 -1.51821649
v 7.01637172 5.55864095 -1.3228321
v 6.68068075 6.66282606 0.54127377
v 7.00993776 5.56610202 0.56451106
v 8.13311576 5.37596511 0.53821408
v 7.06147241 5.57126855 2.69672775
v 8.15547084 5.33296299 2.73802495
v 9.28764629 5.11511611 2.75094795
v 8.20075702 5.3854146 4.92573881
v 9.38918304 5.2024064 4.9906044
v 10.61706066 5.19687938 4.99958038
v 9.01865768 3.4060471 5.14758586
v 10.56292438 3.21764493 5.13457775
v 12.1487503 3.30968117 4.92133665
v 10.40770816 1.25248849 5.14993572
v 12.31587982 1.29595875 5.16246986
v 14.16283702 1.68764376 4.97089624
v 12.44833755 -0.68964672 5.08909034
v 14.7277708 -0.18681681 5.01089906
v 16.78437233 0.76023125 4.47610425
v 15.24731063 -2.05668902 4.4132514
v 17.76016807 -0.88353127 4.48842525
v 20.02265548 0.77409386 4.35896778
v 18.81430053 -2.59905219 5.23099374
v 21.3705368 -0.62459129 5.29716825
v 23.41258621 1.86047554 5.28946256
v 21.59328842 -0.85136854 2.84685611
v 23.56819534 1.73055136 2.84488344
v 25.07113266 4.55911874 2.8417418
v 23.59207534 1.70275783 0.52001357
v 25.04663658 4.55098438 0.52465337
v 25.80028343 7.62572622 0.52966696
v 24.98397254 4.57223033 -1.88269817
v 25.83402633 7.6113286 -1.84496653
v 25.96902084 10.75685787 -1.87566518
v 23.63714981 7.95333004 -1.4569472
v 23.68675231 10.61478805 -0.91513198
v 23.32543754 13.26807212 -1.00763523
v 21.71357727 10.52865696 -1.63105142
v 21.34042739 12.75274562 -1.58626008
v 20.53990554 14.80543708 -1.14822447
v 19.38572502 12.30390358 -1.66923546
v 18.78929138 14.06192588 -1.73619246
v 17.86778068 15.54322338 -1.07702517
v 17.03635406 13.29417896 -1.73552358
v 16.40961074 14.52638435 -1.57929885
v 15.50844669 15.36075496 -1.05733966
v 15.15927982 13.50788497 -1.49976539
v 14.66661167 14.26576328 -1.36956417
v 14.63845539 14.3047266 0.58224362
v 13.64920425 14.40489864 2.74128747
v 12.61111927 14.39314746 4.99232196
v 11.34775352 16.29821777 5.17358589
v 9.52733421 18.12726783 5.18322753
# The following MRGB block contains ZBrush Vertex Color (Polypaint) and masking output as 4 hexadecimal values per vertex. The vertex color format is MMRRGGBB with up to 64 entries per MRGB line.
#MRGB ffffffffffffffffffffffffffffffffffffffffffffffffffffffffffffffffffffffffffffffffffffffffffffffffffffffffffffffffffffffffffffffffffffffffffffffffffffffffffffffffffffffffffffffffffffffffffffffffffffffffffffffffffffffffffffffffffffffffffffffffffffffffffffffffffffffffffffffffffffffffffffffffffffffffffffffffffffffffffffffffffffffffffffffffffffffffffffffffffffffffffffffffffffffffffffffffffffffffffffffffffffffffffffffffffffffffffffffffffffffffffffffffffffffffffffffffffffffffffffffffffffffffffffffffffffffffffffffff
#MRGB ffffffffffffffffffffffffffffffffffffffffffffffffffffffffffffffffffffffffffffffffffffffffffffffffffffffffffffffffffffffffffffffffffffffffffffffffffffffffffffffffffffffffffffffffffffffffffffffffffffffffffffffffffffffffffffffffffffffffffffffffffffffffffffffffffffffffffffffffffffffffffffffffffffffffffffffffffffffffffffffffffffffffffffffffffffffffffffffffffffffffffffffffffffffffffffffffffffffffffffffffffffffffffffffffffffffffffffffffffffffffffffffffffffffffffffffffffffffffffffffffffffffffffffffffffffffffffffffff
#MRGB ffffffffffffffffffffffffffffffffffffffffffffffffffffffffffffffffffffffffffffffffffffffffffffffffffffffffffffffffffffffffffffffffffffffffffffffffffffffffffffffffffffffffffffffffffffffffffffffffffffffffffffffffffffffffffffffffffffffffffffffffffffffffffffffffffffffffffffffffffffffffffffffffffffffffffffffffffffffffffffffffffffffffffffffffffffffffffffffffffffffffffffffffffffffffffffffffffffffffffffffffffffffffffffffffffffffffffffffffffffffffffffffffffffffffffffffffffffffffffffffffffffffffffffffffffffffffffffffff
#MRGB ffffffffffffffffffffffffffffffffffffffffffffffffffffffffffffffffffffffffffffffffffffffffffffffffffffffffffffffffffffffffffffffffffffffffffffffffffffffffffffffffffffffffffffffffffffffffffffffffffffffffffffffffffffffffffffffffffffffffffffffffffffffffffffffffffffffffffffffffffffffffffffffffffffffffffffffffffffffffffffffffffffffffffffffffffffffffffffffffffffffffffffffffffffffffffffffffffffffffffffffffffffffffffffffffffffffffffffffffffffffffffffffffffffffffffffffffffffffffffffffffffffffffffffffffffffffffffffffff
#MRGB ffffffffffffffffffffffffffffffffffffffffffffffffffffffffffffffffffffffffffffffffffffffffffffffffffffffffffffffffffffffffffffffffffffffffffffffffffffffffffffffffffffffffffffffffffffffffffffffffffffffffffffffffffffffffffffffffffffffffffffffffffffffffffffffffffffffffffffffffffffffffffffffffffffffffffffffffffffffffffffffffffffffffffffffffffffffffffffffffffffffffffffffffffffffffffffffffffffffffffffffffffffffffffffffffffffffffffffffffffffffffffffffffffffffffffffffffffffffffffffffffffffffffffffffffffffffffffffffff
#MRGB ffffffffffffffffffffffffffffffffffffffffffffffffffffffffffffffffffffffffffffffffffffffffffffffffffffffffffffffffffffffffffffffffffffffffffffffffffffffffffffffffffffffffffffffffffffffffffffffffffffffffffffffffffffffffffffffffffffffffffffffffffffffffffffffffffffffffffffffffffffffffffffffffffffffffffffffffffffffffffffffffffffffffffffffffffffffffffffffffffffffffffffffffffffffffffffffffffffffffffffffffffffffffffffffffffffffffffffffffffffffffffffffffffffffffffffffffffffffffffffffffffffffffffffffffffffffffffffffff
#MRGB ffffffffffffffffffffffffffffffffffffffffffffffffffffffffffffffffffffffffffffffffffffffffffffffffffffffffffffffffffffffffffffffffffffffffffffffffffffffffffffffffffffffffffffffffffffffffffffffffffffffffffffffffffffffffffffffffffffffffffffffffffffffffffffffffffffffffffffffffffffffffffffffffffffffffffffffffffffffffffffffffffffffffffffffffffffffffffffffffffffffffffffffffffffffffffffffffffffffffffffffffffffffffffffffffffffffffffffffffffffffffffffffffffffffffffffffffffffffffffffffffffffffffffffffffffffffffffffffff
#MRGB ffffffffffffffffffffffffffffffffffffffffffffffffffffffffffffffffffffffffffffffffffffffffffffffffffffffffffffffffffffffffffffffffffffffffffffffffffffffffffffffffffffffffffffffffffffffffffffffffffffffffffffffffffffffffffffffffffffffffffffffffffffffffffffffff
# End of MRGB block 
vt 0.24382 0.25313
vt 0.26041 0.25313
vt 0.26041 0.28472
vt 0.24382 0.28472
vt 0.21647 0.6794
vt 0.2375 0.68058
vt 0.23621 0.70796
vt 0.2118 0.70594
vt 0.2118 0.70594
vt 0.19015 0.70038
vt 0.19946 0.67758
vt 0.21647 0.6794
vt 0.24382 0.28472
vt 0.22313 0.28472
vt 0.22313 0.25313
vt 0.24382 0.25313
vt 0.22313 0.25313
vt 0.22313 0.28472
vt 0.19919 0.28472
vt 0.19919 0.25313
vt 0.24382 0.28472
vt 0.24382 0.32049
vt 0.22313 0.32049
vt 0.22313 0.28472
vt 0.22313 0.28472
vt 0.22313 0.32049
vt 0.19919 0.32049
vt 0.19919 0.28472
vt 0.19919 0.32049
vt 0.17604 0.32049
vt 0.17604 0.28472
vt 0.19919 0.28472
vt 0.19919 0.32049
vt 0.22313 0.32049
vt 0.22313 0.35305
vt 0.19919 0.35305
vt 0.19919 0.32049
vt 0.19919 0.35305
vt 0.17604 0.35305
vt 0.17604 0.32049
vt 0.17604 0.35305
vt 0.15953 0.35305
vt 0.15953 0.32049
vt 0.17604 0.32049
vt 0.71822 0.67324
vt 0.7417 0.67786
vt 0.74019 0.71062
vt 0.71571 0.70794
vt 0.71822 0.67324
vt 0.71571 0.70794
vt 0.69519 0.70247
vt 0.70068 0.67452
vt 0.69519 0.70247
vt 0.67578 0.6955
vt 0.68806 0.67586
vt 0.70068 0.67452
vt 0.69519 0.70247
vt 0.71571 0.70794
vt 0.71145 0.73951
vt 0.68354 0.7319
vt 0.69519 0.70247
vt 0.68354 0.7319
vt 0.66012 0.71996
vt 0.67578 0.6955
vt 0.66012 0.71996
vt 0.64083 0.70313
vt 0.66245 0.68296
vt 0.67578 0.6955
vt 0.66012 0.71996
vt 0.68354 0.7319
vt 0.6723 0.76016
vt 0.64296 0.744
vt 0.66012 0.71996
vt 0.64296 0.744
vt 0.61782 0.72152
vt 0.64083 0.70313
vt 0.61782 0.72152
vt 0.59827 0.6944
vt 0.62613 0.67996
vt 0.64083 0.70313
vt 0.61782 0.72152
vt 0.64296 0.744
vt 0.6249 0.76803
vt 0.59541 0.73996
vt 0.61782 0.72152
vt 0.59541 0.73996
vt 0.57174 0.70623
vt 0.59827 0.6944
vt 0.57174 0.70623
vt 0.55542 0.66856
vt 0.58652 0.66072
vt 0.59827 0.6944
vt 0.57174 0.70623
vt 0.59541 0.73996
vt 0.56952 0.76145
vt 0.54175 0.72181
vt 0.57174 0.70623
vt 0.54175 0.72181
vt 0.52343 0.67724
vt 0.55542 0.66856
vt 0.52343 0.67724
vt 0.51414 0.63028
vt 0.54815 0.6284
vt 0.55542 0.66856
vt 0.49377 0.24382
vt 0.44577 0.24382
vt 0.44577 0.20737
vt 0.49377 0.20737
vt 0.49377 0.24382
vt 0.49377 0.20737
vt 0.54167 0.20737
vt 0.54167 0.24382
vt 0.54167 0.20737
vt 0.59014 0.20737
vt 0.59014 0.24382
vt 0.54167 0.24382
vt 0.54167 0.20737
vt 0.49377 0.20737
vt 0.49377 0.17089
vt 0.54167 0.17089
vt 0.54167 0.20737
vt 0.54167 0.17089
vt 0.59014 0.17089
vt 0.59014 0.20737
vt 0.59014 0.17089
vt 0.63785 0.17089
vt 0.63785 0.20737
vt 0.59014 0.20737
vt 0.59014 0.17089
vt 0.54167 0.17089
vt 0.54167 0.13598
vt 0.59014 0.13598
vt 0.59014 0.17089
vt 0.59014 0.13598
vt 0.63785 0.13598
vt 0.63785 0.17089
vt 0.63785 0.13598
vt 0.68678 0.13598
vt 0.68678 0.17089
vt 0.63785 0.17089
vt 0.47176 0.52673
vt 0.48295 0.5745
vt 0.44992 0.5798
vt 0.43921 0.53887
vt 0.47176 0.52673
vt 0.43921 0.53887
vt 0.42044 0.50045
vt 0.44855 0.48235
vt 0.42044 0.50045
vt 0.39411 0.46605
vt 0.41907 0.44162
vt 0.44855 0.48235
vt 0.42044 0.50045
vt 0.43921 0.53887
vt 0.41006 0.54995
vt 0.39471 0.51694
vt 0.42044 0.50045
vt 0.39471 0.51694
vt 0.37222 0.48751
vt 0.39411 0.46605
vt 0.37222 0.48751
vt 0.34196 0.46361
vt 0.36073 0.43702
vt 0.39411 0.46605
vt 0.37222 0.48751
vt 0.39471 0.51694
vt 0.36926 0.53302
vt 0.35147 0.50882
vt 0.37222 0.48751
vt 0.35147 0.50882
vt 0.32587 0.48968
vt 0.34196 0.46361
vt 0.32587 0.48968
vt 0.29859 0.47693
vt 0.30957 0.44667
vt 0.34196 0.46361
vt 0.32587 0.48968
vt 0.35147 0.50882
vt 0.32799 0.52893
vt 0.31042 0.51606
vt 0.32587 0.48968
vt 0.31042 0.51606
vt 0.28895 0.50746
vt 0.29859 0.47693
vt 0.28895 0.50746
vt 0.26481 0.50253
vt 0.26907 0.46977
vt 0.29859 0.47693
vt 0.28895 0.50746
vt 0.31042 0.51606
vt 0.2997 0.53742
vt 0.28181 0.53395
vt 0.28895 0.50746
vt 0.28181 0.53395
vt 0.26186 0.53135
vt 0.26481 0.50253
vt 0.26186 0.53135
vt 0.2408 0.53405
vt 0.23949 0.50125
vt 0.26481 0.50253
vt 0.49143 0.25313
vt 0.5121 0.25313
vt 0.5121 0.28472
vt 0.49143 0.28472
vt 0.49143 0.25313
vt 0.49143 0.28472
vt 0.46948 0.28472
vt 0.46948 0.25313
vt 0.46948 0.28472
vt 0.44844 0.28472
vt 0.44844 0.25313
vt 0.46948 0.25313
vt 0.46948 0.28472
vt 0.49143 0.28472
vt 0.49143 0.32049
vt 0.46948 0.32049
vt 0.46948 0.28472
vt 0.46948 0.32049
vt 0.44844 0.32049
vt 0.44844 0.28472
vt 0.44844 0.32049
vt 0.43085 0.32049
vt 0.43085 0.28472
vt 0.44844 0.28472
vt 0.44844 0.32049
vt 0.46948 0.32049
vt 0.46948 0.35305
vt 0.44844 0.35305
vt 0.44844 0.32049
vt 0.44844 0.35305
vt 0.43085 0.35305
vt 0.43085 0.32049
vt 0.43085 0.35305
vt 0.41455 0.35305
vt 0.41455 0.32049
vt 0.43085 0.32049
vt 0.79397 0.53863
vt 0.77601 0.53574
vt 0.77998 0.50244
vt 0.80221 0.50802
vt 0.79397 0.53863
vt 0.80221 0.50802
vt 0.82246 0.517
vt 0.80971 0.53716
vt 0.82246 0.517
vt 0.83727 0.53223
vt 0.81874 0.54602
vt 0.80971 0.53716
vt 0.82246 0.517
vt 0.80221 0.50802
vt 0.81461 0.47877
vt 0.8407 0.49275
vt 0.82246 0.517
vt 0.8407 0.49275
vt 0.8616 0.51447
vt 0.83727 0.53223
vt 0.8616 0.51447
vt 0.87571 0.54202
vt 0.84836 0.55351
vt 0.83727 0.53223
vt 0.8616 0.51447
vt 0.8407 0.49275
vt 0.85859 0.46927
vt 0.88503 0.49667
vt 0.8616 0.51447
vt 0.88503 0.49667
vt 0.90359 0.52814
vt 0.87571 0.54202
vt 0.90359 0.52814
vt 0.91545 0.56314
vt 0.88488 0.57018
vt 0.87571 0.54202
vt 0.90359 0.52814
vt 0.88503 0.49667
vt 0.90786 0.47818
vt 0.93077 0.5149
vt 0.90359 0.52814
vt 0.93077 0.5149
vt 0.94652 0.55498
vt 0.91545 0.56314
vt 0.94652 0.55498
vt 0.95296 0.59724
vt 0.92033 0.5983
vt 0.91545 0.56314
vt 0.94652 0.55498
vt 0.93077 0.5149
vt 0.96202 0.49924
vt 0.97925 0.54614
vt 0.94652 0.55498
vt 0.97925 0.54614
vt 0.98784 0.59527
vt 0.95296 0.59724
vt 0.98784 0.59527
vt 0.98361 0.64521
vt 0.94995 0.63936
vt 0.95296 0.59724
vt 0.57643 0.12798
vt 0.52638 0.12798
vt 0.52638 0.09094
vt 0.57643 0.09094
vt 0.57643 0.12798
vt 0.57643 0.09094
vt 0.62619 0.09094
vt 0.62619 0.12798
vt 0.62619 0.09094
vt 0.67586 0.09094
vt 0.67586 0.12798
vt 0.62619 0.12798
vt 0.62619 0.09094
vt 0.57643 0.09094
vt 0.57643 0.05474
vt 0.62619 0.05474
vt 0.62619 0.09094
vt 0.62619 0.05474
vt 0.67586 0.05474
vt 0.67586 0.09094
vt 0.67586 0.05474
vt 0.72574 0.05474
vt 0.72574 0.09094
vt 0.67586 0.09094
vt 0.67586 0.05474
vt 0.62619 0.05474
vt 0.62619 0.0196
vt 0.67586 0.0196
vt 0.67586 0.05474
vt 0.67586 0.0196
vt 0.72574 0.0196
vt 0.72574 0.05474
vt 0.72574 0.0196
vt 0.7757 0.0196
vt 0.7757 0.05474
vt 0.72574 0.05474
vt 0.05563 0.74641
vt 0.03103 0.70285
vt 0.06107 0.68944
vt 0.08228 0.72695
vt 0.05563 0.74641
vt 0.08228 0.72695
vt 0.11127 0.75917
vt 0.08945 0.78357
vt 0.11127 0.75917
vt 0.1466 0.78383
vt 0.13017 0.81261
vt 0.08945 0.78357
vt 0.11127 0.75917
vt 0.08228 0.72695
vt 0.10782 0.70879
vt 0.13181 0.736
vt 0.11127 0.75917
vt 0.13181 0.736
vt 0.16199 0.7559
vt 0.1466 0.78383
vt 0.16199 0.7559
vt 0.19613 0.76859
vt 0.18589 0.79949
vt 0.1466 0.78383
vt 0.16199 0.7559
vt 0.13181 0.736
vt 0.15098 0.71387
vt 0.17585 0.72824
vt 0.16199 0.7559
vt 0.17585 0.72824
vt 0.20479 0.73721
vt 0.19613 0.76859
vt 0.20479 0.73721
vt 0.23372 0.74129
vt 0.23024 0.77506
vt 0.19613 0.76859
vt 0.20479 0.73721
vt 0.17585 0.72824
vt 0.19015 0.70038
vt 0.2118 0.70594
vt 0.20479 0.73721
vt 0.2118 0.70594
vt 0.23621 0.70796
vt 0.23372 0.74129
vt 0.23024 0.77506
vt 0.26444 0.77542
vt 0.26697 0.8093
vt 0.22635 0.80871
vt 0.23024 0.77506
vt 0.22635 0.80871
vt 0.18589 0.79949
vt 0.19613 0.76859
vt 0.23024 0.77506
vt 0.23372 0.74129
vt 0.26302 0.74093
vt 0.26444 0.77542
vt 0.26302 0.74093
vt 0.29125 0.73703
vt 0.29738 0.76947
vt 0.26444 0.77542
vt 0.26302 0.74093
vt 0.23372 0.74129
vt 0.23621 0.70796
vt 0.2622 0.70711
vt 0.26302 0.74093
vt 0.2622 0.70711
vt 0.28632 0.70432
vt 0.29125 0.73703
vt 0.28632 0.70432
vt 0.30667 0.70057
vt 0.31928 0.73054
vt 0.29125 0.73703
vt 0.28632 0.70432
vt 0.2622 0.70711
vt 0.2605 0.67353
vt 0.28363 0.66915
vt 0.28632 0.70432
vt 0.28363 0.66915
vt 0.29959 0.67314
vt 0.30667 0.70057
vt 0.29959 0.67314
vt 0.31132 0.67351
vt 0.32679 0.69512
vt 0.30667 0.70057
vt 0.15953 0.25313
vt 0.17604 0.25313
vt 0.17604 0.28472
vt 0.15953 0.28472
vt 0.15953 0.25313
vt 0.15953 0.28472
vt 0.14752 0.28472
vt 0.14752 0.25313
vt 0.14752 0.28472
vt 0.13783 0.28472
vt 0.13783 0.25313
vt 0.14752 0.25313
vt 0.14752 0.28472
vt 0.15953 0.28472
vt 0.15953 0.32049
vt 0.14752 0.32049
vt 0.14752 0.28472
vt 0.14752 0.32049
vt 0.13783 0.32049
vt 0.13783 0.28472
vt 0.13783 0.32049
vt 0.12634 0.32049
vt 0.12634 0.28472
vt 0.13783 0.28472
vt 0.13783 0.32049
vt 0.14752 0.32049
vt 0.14752 0.35305
vt 0.13783 0.35305
vt 0.13783 0.32049
vt 0.13783 0.35305
vt 0.12634 0.35305
vt 0.12634 0.32049
vt 0.12634 0.35305
vt 0.1119 0.35305
vt 0.1119 0.32049
vt 0.12634 0.32049
vt 0.6781 0.65774
vt 0.6822 0.66936
vt 0.66245 0.68296
vt 0.65268 0.66751
vt 0.6781 0.65774
vt 0.65268 0.66751
vt 0.64618 0.64814
vt 0.6769 0.6433
vt 0.64618 0.64814
vt 0.64261 0.6251
vt 0.67389 0.62342
vt 0.6769 0.6433
vt 0.64618 0.64814
vt 0.65268 0.66751
vt 0.62613 0.67996
vt 0.61655 0.6544
vt 0.64618 0.64814
vt 0.61655 0.6544
vt 0.61188 0.62626
vt 0.64261 0.6251
vt 0.61188 0.62626
vt 0.61185 0.59673
vt 0.64206 0.60002
vt 0.64261 0.6251
vt 0.61188 0.62626
vt 0.61655 0.6544
vt 0.58652 0.66072
vt 0.58074 0.62716
vt 0.61188 0.62626
vt 0.58074 0.62716
vt 0.58097 0.59241
vt 0.61185 0.59673
vt 0.58097 0.59241
vt 0.58763 0.55654
vt 0.61714 0.56729
vt 0.61185 0.59673
vt 0.58097 0.59241
vt 0.58074 0.62716
vt 0.54815 0.6284
vt 0.54898 0.58731
vt 0.58097 0.59241
vt 0.54898 0.58731
vt 0.55768 0.54631
vt 0.58763 0.55654
vt 0.55768 0.54631
vt 0.57436 0.50827
vt 0.60161 0.52359
vt 0.58763 0.55654
vt 0.55768 0.54631
vt 0.54898 0.58731
vt 0.51452 0.58245
vt 0.52341 0.53504
vt 0.55768 0.54631
vt 0.52341 0.53504
vt 0.54423 0.4911
vt 0.57436 0.50827
vt 0.54423 0.4911
vt 0.57122 0.44971
vt 0.59864 0.47388
vt 0.57436 0.50827
vt 0.68678 0.24382
vt 0.63785 0.24382
vt 0.63785 0.20737
vt 0.68678 0.20737
vt 0.68678 0.24382
vt 0.68678 0.20737
vt 0.73702 0.20737
vt 0.73702 0.24382
vt 0.01337 0.09094
vt 0.06418 0.09094
vt 0.06418 0.12798
vt 0.01337 0.12798
vt 0.73702 0.20737
vt 0.68678 0.20737
vt 0.68678 0.17089
vt 0.73702 0.17089
vt 0.01337 0.09094
vt 0.01337 0.05474
vt 0.06418 0.05474
vt 0.06418 0.09094
vt 0.06418 0.05474
vt 0.11542 0.05474
vt 0.11542 0.09094
vt 0.06418 0.09094
vt 0.06418 0.05474
vt 0.01337 0.05474
vt 0.01337 0.0196
vt 0.06418 0.0196
vt 0.06418 0.05474
vt 0.06418 0.0196
vt 0.11542 0.0196
vt 0.11542 0.05474
vt 0.11542 0.0196
vt 0.16678 0.0196
vt 0.16678 0.05474
vt 0.11542 0.05474
vt 0.33486 0.38498
vt 0.38017 0.4088
vt 0.36073 0.43702
vt 0.32186 0.41587
vt 0.33486 0.38498
vt 0.32186 0.41587
vt 0.27944 0.40414
vt 0.28524 0.3712
vt 0.27944 0.40414
vt 0.23522 0.40242
vt 0.23371 0.36858
vt 0.28524 0.3712
vt 0.27944 0.40414
vt 0.32186 0.41587
vt 0.30957 0.44667
vt 0.27398 0.43722
vt 0.27944 0.40414
vt 0.27398 0.43722
vt 0.23703 0.43593
vt 0.23522 0.40242
vt 0.23703 0.43593
vt 0.20042 0.44256
vt 0.19175 0.41089
vt 0.23522 0.40242
vt 0.23703 0.43593
vt 0.27398 0.43722
vt 0.26907 0.46977
vt 0.2384 0.46841
vt 0.23703 0.43593
vt 0.2384 0.46841
vt 0.20795 0.47312
vt 0.20042 0.44256
vt 0.20795 0.47312
vt 0.17894 0.48419
vt 0.16534 0.45651
vt 0.20042 0.44256
vt 0.20795 0.47312
vt 0.2384 0.46841
vt 0.23949 0.50125
vt 0.21463 0.50425
vt 0.20795 0.47312
vt 0.21463 0.50425
vt 0.19233 0.51199
vt 0.17894 0.48419
vt 0.19233 0.51199
vt 0.17402 0.52423
vt 0.15477 0.50093
vt 0.17894 0.48419
vt 0.19233 0.51199
vt 0.21463 0.50425
vt 0.21967 0.53621
vt 0.203 0.53994
vt 0.19233 0.51199
vt 0.203 0.53994
vt 0.18609 0.53974
vt 0.17402 0.52423
vt 0.18609 0.53974
vt 0.17663 0.55191
vt 0.15951 0.54024
vt 0.17402 0.52423
vt 0.41455 0.25313
vt 0.43085 0.25313
vt 0.43085 0.28472
vt 0.41455 0.28472
vt 0.41455 0.25313
vt 0.41455 0.28472
vt 0.40066 0.28472
vt 0.40066 0.25313
vt 0.40066 0.28472
vt 0.38413 0.28472
vt 0.38413 0.25313
vt 0.40066 0.25313
vt 0.40066 0.28472
vt 0.41455 0.28472
vt 0.41455 0.32049
vt 0.40066 0.32049
vt 0.40066 0.28472
vt 0.40066 0.32049
vt 0.38413 0.32049
vt 0.38413 0.28472
vt 0.38413 0.32049
vt 0.3654 0.32049
vt 0.3654 0.28472
vt 0.38413 0.28472
vt 0.38413 0.32049
vt 0.40066 0.32049
vt 0.40066 0.35305
vt 0.38413 0.35305
vt 0.38413 0.32049
vt 0.38413 0.35305
vt 0.3654 0.35305
vt 0.3654 0.32049
vt 0.3654 0.35305
vt 0.34454 0.35305
vt 0.34454 0.32049
vt 0.3654 0.32049
vt 0.82392 0.58172
vt 0.82116 0.56304
vt 0.84836 0.55351
vt 0.85497 0.57627
vt 0.82392 0.58172
vt 0.85497 0.57627
vt 0.85771 0.60081
vt 0.8273 0.60223
vt 0.85771 0.60081
vt 0.85681 0.62554
vt 0.8263 0.62277
vt 0.8273 0.60223
vt 0.85771 0.60081
vt 0.85497 0.57627
vt 0.88488 0.57018
vt 0.8887 0.59961
vt 0.85771 0.60081
vt 0.8887 0.59961
vt 0.88731 0.62932
vt 0.85681 0.62554
vt 0.88731 0.62932
vt 0.88071 0.6582
vt 0.85209 0.64849
vt 0.85681 0.62554
vt 0.88731 0.62932
vt 0.8887 0.59961
vt 0.92033 0.5983
vt 0.91826 0.63386
vt 0.88731 0.62932
vt 0.91826 0.63386
vt 0.90998 0.66938
vt 0.88071 0.6582
vt 0.90998 0.66938
vt 0.8933 0.70181
vt 0.86831 0.68582
vt 0.88071 0.6582
vt 0.90998 0.66938
vt 0.91826 0.63386
vt 0.94995 0.63936
vt 0.93886 0.68057
vt 0.90998 0.66938
vt 0.93886 0.68057
vt 0.91903 0.71866
vt 0.8933 0.70181
vt 0.91903 0.71866
vt 0.89133 0.75163
vt 0.87024 0.72956
vt 0.8933 0.70181
vt 0.91903 0.71866
vt 0.93886 0.68057
vt 0.96978 0.69284
vt 0.94694 0.7373
vt 0.91903 0.71866
vt 0.94694 0.7373
vt 0.91442 0.77535
vt 0.89133 0.75163
vt 0.91442 0.77535
vt 0.87496 0.8057
vt 0.85711 0.77748
vt 0.89133 0.75163
vt 0.7757 0.12798
vt 0.72574 0.12798
vt 0.72574 0.09094
vt 0.7757 0.09094
vt 0.01337 0.24382
vt 0.01337 0.20737
vt 0.06311 0.20737
vt 0.06311 0.24382
vt 0.06311 0.20737
vt 0.11194 0.20737
vt 0.11194 0.24382
vt 0.06311 0.24382
vt 0.06311 0.20737
vt 0.01337 0.20737
vt 0.01337 0.17089
vt 0.06311 0.17089
vt 0.06311 0.20737
vt 0.06311 0.17089
vt 0.11194 0.17089
vt 0.11194 0.20737
vt 0.11194 0.17089
vt 0.1599 0.17089
vt 0.1599 0.20737
vt 0.11194 0.20737
vt 0.11194 0.17089
vt 0.06311 0.17089
vt 0.06311 0.13598
vt 0.11194 0.13598
vt 0.11194 0.17089
vt 0.11194 0.13598
vt 0.1599 0.13598
vt 0.1599 0.17089
vt 0.1599 0.13598
vt 0.20725 0.13598
vt 0.20725 0.17089
vt 0.1599 0.17089
vt 0.22233 0.84071
vt 0.17524 0.83164
vt 0.18589 0.79949
vt 0.22635 0.80871
vt 0.22233 0.84071
vt 0.22635 0.80871
vt 0.26697 0.8093
vt 0.26965 0.84322
vt 0.20725 0.17089
vt 0.25431 0.17089
vt 0.25431 0.20737
vt 0.20725 0.20737
vt 0.20725 0.17089
vt 0.20725 0.20737
vt 0.1599 0.20737
vt 0.1599 0.17089
vt 0.20725 0.17089
vt 0.20725 0.13598
vt 0.25431 0.13598
vt 0.25431 0.17089
vt 0.25431 0.13598
vt 0.30158 0.13598
vt 0.30158 0.17089
vt 0.25431 0.17089
vt 0.31594 0.83385
vt 0.26965 0.84322
vt 0.26697 0.8093
vt 0.30671 0.80172
vt 0.31594 0.83385
vt 0.30671 0.80172
vt 0.34474 0.78758
vt 0.36035 0.81687
vt 0.34474 0.78758
vt 0.37949 0.76529
vt 0.40114 0.79063
vt 0.36035 0.81687
vt 0.34474 0.78758
vt 0.30671 0.80172
vt 0.29738 0.76947
vt 0.33099 0.75964
vt 0.34474 0.78758
vt 0.33099 0.75964
vt 0.3607 0.74284
vt 0.37949 0.76529
vt 0.3607 0.74284
vt 0.38569 0.71799
vt 0.40908 0.73555
vt 0.37949 0.76529
vt 0.3607 0.74284
vt 0.33099 0.75964
vt 0.31928 0.73054
vt 0.34354 0.71962
vt 0.3607 0.74284
vt 0.34354 0.71962
vt 0.36316 0.70106
vt 0.38569 0.71799
vt 0.36316 0.70106
vt 0.37517 0.67585
vt 0.40248 0.68873
vt 0.38569 0.71799
vt 0.36316 0.70106
vt 0.34354 0.71962
vt 0.32679 0.69512
vt 0.33973 0.68285
vt 0.36316 0.70106
vt 0.33973 0.68285
vt 0.34767 0.6649
vt 0.37517 0.67585
vt 0.34767 0.6649
vt 0.35207 0.64425
vt 0.38249 0.64883
vt 0.37517 0.67585
vt 0.34767 0.6649
vt 0.33973 0.68285
vt 0.319 0.66721
vt 0.32122 0.65587
vt 0.34767 0.6649
vt 0.32122 0.65587
vt 0.32095 0.64101
vt 0.35207 0.64425
vt 0.32095 0.64101
vt 0.3241 0.62122
vt 0.35417 0.62104
vt 0.35207 0.64425
vt 0.1119 0.25313
vt 0.12634 0.25313
vt 0.12634 0.28472
vt 0.1119 0.28472
vt 0.1119 0.25313
vt 0.1119 0.28472
vt 0.0924 0.28472
vt 0.0924 0.25313
vt 0.0924 0.28472
vt 0.07039 0.28472
vt 0.07039 0.25313
vt 0.0924 0.25313
vt 0.0924 0.28472
vt 0.1119 0.28472
vt 0.1119 0.32049
vt 0.0924 0.32049
vt 0.0924 0.28472
vt 0.0924 0.32049
vt 0.07039 0.32049
vt 0.07039 0.28472
vt 0.07039 0.32049
vt 0.04943 0.32049
vt 0.04943 0.28472
vt 0.07039 0.28472
vt 0.07039 0.32049
vt 0.0924 0.32049
vt 0.0924 0.35305
vt 0.07039 0.35305
vt 0.07039 0.32049
vt 0.07039 0.35305
vt 0.04943 0.35305
vt 0.04943 0.32049
vt 0.04943 0.35305
vt 0.03077 0.35305
vt 0.03077 0.32049
vt 0.04943 0.32049
vt 0.67219 0.58091
vt 0.67226 0.6017
vt 0.64206 0.60002
vt 0.64531 0.57547
vt 0.67219 0.58091
vt 0.64531 0.57547
vt 0.65299 0.55102
vt 0.67445 0.56177
vt 0.65299 0.55102
vt 0.66725 0.53054
vt 0.67916 0.54494
vt 0.67445 0.56177
vt 0.65299 0.55102
vt 0.64531 0.57547
vt 0.61714 0.56729
vt 0.62768 0.53809
vt 0.65299 0.55102
vt 0.62768 0.53809
vt 0.64451 0.51296
vt 0.66725 0.53054
vt 0.64451 0.51296
vt 0.66867 0.49266
vt 0.68481 0.51642
vt 0.66725 0.53054
vt 0.64451 0.51296
vt 0.62768 0.53809
vt 0.60161 0.52359
vt 0.62225 0.49377
vt 0.64451 0.51296
vt 0.62225 0.49377
vt 0.65065 0.46876
vt 0.66867 0.49266
vt 0.65065 0.46876
vt 0.68213 0.45054
vt 0.69539 0.4785
vt 0.66867 0.49266
vt 0.65065 0.46876
vt 0.62225 0.49377
vt 0.59864 0.47388
vt 0.63018 0.44436
vt 0.65065 0.46876
vt 0.63018 0.44436
vt 0.66739 0.42169
vt 0.68213 0.45054
vt 0.66739 0.42169
vt 0.70868 0.40778
vt 0.71694 0.43917
vt 0.68213 0.45054
vt 0.66739 0.42169
vt 0.63018 0.44436
vt 0.6088 0.41649
vt 0.65245 0.39062
vt 0.66739 0.42169
vt 0.65245 0.39062
vt 0.701 0.37393
vt 0.70868 0.40778
vt 0.701 0.37393
vt 0.75239 0.369
vt 0.75239 0.40377
vt 0.70868 0.40778
vt 0.16678 0.12798
vt 0.11542 0.12798
vt 0.11542 0.09094
vt 0.16678 0.09094
vt 0.16678 0.12798
vt 0.16678 0.09094
vt 0.21823 0.09094
vt 0.21823 0.12798
vt 0.21823 0.09094
vt 0.27 0.09094
vt 0.27 0.12798
vt 0.21823 0.12798
vt 0.21823 0.09094
vt 0.16678 0.09094
vt 0.16678 0.05474
vt 0.21823 0.05474
vt 0.21823 0.09094
vt 0.21823 0.05474
vt 0.27 0.05474
vt 0.27 0.09094
vt 0.27 0.05474
vt 0.32174 0.05474
vt 0.32174 0.09094
vt 0.27 0.09094
vt 0.27 0.05474
vt 0.21823 0.05474
vt 0.21823 0.0196
vt 0.27 0.0196
vt 0.27 0.05474
vt 0.27 0.0196
vt 0.32174 0.0196
vt 0.32174 0.05474
vt 0.32174 0.0196
vt 0.37371 0.0196
vt 0.37371 0.05474
vt 0.32174 0.05474
vt 0.13443 0.39676
vt 0.18254 0.37721
vt 0.19175 0.41089
vt 0.151 0.42822
vt 0.13443 0.39676
vt 0.151 0.42822
vt 0.11435 0.45284
vt 0.09146 0.42571
vt 0.11435 0.45284
vt 0.08402 0.48433
vt 0.05654 0.46373
vt 0.09146 0.42571
vt 0.11435 0.45284
vt 0.151 0.42822
vt 0.16534 0.45651
vt 0.13491 0.47709
vt 0.11435 0.45284
vt 0.13491 0.47709
vt 0.10937 0.50327
vt 0.08402 0.48433
vt 0.10937 0.50327
vt 0.09096 0.53473
vt 0.06192 0.52188
vt 0.08402 0.48433
vt 0.10937 0.50327
vt 0.13491 0.47709
vt 0.15477 0.50093
vt 0.13452 0.52186
vt 0.10937 0.50327
vt 0.13452 0.52186
vt 0.12049 0.54938
vt 0.09096 0.53473
vt 0.12049 0.54938
vt 0.11191 0.57763
vt 0.08033 0.57074
vt 0.09096 0.53473
vt 0.12049 0.54938
vt 0.13452 0.52186
vt 0.15951 0.54024
vt 0.1494 0.56049
vt 0.12049 0.54938
vt 0.1494 0.56049
vt 0.14358 0.58335
vt 0.11191 0.57763
vt 0.14358 0.58335
vt 0.14172 0.60828
vt 0.1091 0.60758
vt 0.11191 0.57763
vt 0.14358 0.58335
vt 0.1494 0.56049
vt 0.1761 0.56888
vt 0.17397 0.58773
vt 0.14358 0.58335
vt 0.17397 0.58773
vt 0.17074 0.60859
vt 0.14172 0.60828
vt 0.17074 0.60859
vt 0.17356 0.6295
vt 0.14382 0.63318
vt 0.14172 0.60828
vt 0.34454 0.25313
vt 0.3654 0.25313
vt 0.3654 0.28472
vt 0.34454 0.28472
vt 0.34454 0.25313
vt 0.34454 0.28472
vt 0.32382 0.28472
vt 0.32382 0.25313
vt 0.32382 0.28472
vt 0.3051 0.28472
vt 0.3051 0.25313
vt 0.32382 0.25313
vt 0.32382 0.28472
vt 0.34454 0.28472
vt 0.34454 0.32049
vt 0.32382 0.32049
vt 0.32382 0.28472
vt 0.32382 0.32049
vt 0.3051 0.32049
vt 0.3051 0.28472
vt 0.3051 0.32049
vt 0.29004 0.32049
vt 0.29004 0.28472
vt 0.3051 0.28472
vt 0.3051 0.32049
vt 0.32382 0.32049
vt 0.32382 0.35305
vt 0.3051 0.35305
vt 0.3051 0.32049
vt 0.3051 0.35305
vt 0.29004 0.35305
vt 0.29004 0.32049
vt 0.29004 0.35305
vt 0.27548 0.35305
vt 0.27548 0.32049
vt 0.29004 0.32049
vt 0.82248 0.65832
vt 0.82337 0.64213
vt 0.85209 0.64849
vt 0.84343 0.66848
vt 0.82248 0.65832
vt 0.84343 0.66848
vt 0.83009 0.68669
vt 0.81534 0.67122
vt 0.83009 0.68669
vt 0.81074 0.69892
vt 0.80053 0.67563
vt 0.81534 0.67122
vt 0.83009 0.68669
vt 0.84343 0.66848
vt 0.86831 0.68582
vt 0.84988 0.70789
vt 0.83009 0.68669
vt 0.84988 0.70789
vt 0.82631 0.72466
vt 0.81074 0.69892
vt 0.82631 0.72466
vt 0.79853 0.73605
vt 0.78991 0.70648
vt 0.81074 0.69892
vt 0.82631 0.72466
vt 0.84988 0.70789
vt 0.87024 0.72956
vt 0.84153 0.75081
vt 0.82631 0.72466
vt 0.84153 0.75081
vt 0.80839 0.76614
vt 0.79853 0.73605
vt 0.80839 0.76614
vt 0.77418 0.77385
vt 0.76969 0.74196
vt 0.79853 0.73605
vt 0.80839 0.76614
vt 0.84153 0.75081
vt 0.85711 0.77748
vt 0.81905 0.79596
vt 0.80839 0.76614
vt 0.81905 0.79596
vt 0.77878 0.8061
vt 0.77418 0.77385
vt 0.77878 0.8061
vt 0.73808 0.80797
vt 0.73957 0.775
vt 0.77418 0.77385
vt 0.77878 0.8061
vt 0.81905 0.79596
vt 0.83116 0.82751
vt 0.78455 0.83922
vt 0.77878 0.8061
vt 0.78455 0.83922
vt 0.73702 0.84322
vt 0.73808 0.80797
vt 0.73702 0.84322
vt 0.69018 0.83586
vt 0.69814 0.80167
vt 0.73808 0.80797
vt 0.20725 0.24382
vt 0.1599 0.24382
vt 0.1599 0.20737
vt 0.20725 0.20737
vt 0.20725 0.24382
vt 0.20725 0.20737
vt 0.25431 0.20737
vt 0.25431 0.24382
vt 0.69814 0.80167
vt 0.65985 0.78873
vt 0.6723 0.76016
vt 0.70604 0.77018
vt 0.69814 0.80167
vt 0.70604 0.77018
vt 0.73957 0.775
vt 0.73808 0.80797
vt 0.69814 0.80167
vt 0.69018 0.83586
vt 0.64554 0.81986
vt 0.65985 0.78873
vt 0.64554 0.81986
vt 0.60454 0.79497
vt 0.6249 0.76803
vt 0.65985 0.78873
vt 0.30158 0.24382
vt 0.25431 0.24382
vt 0.25431 0.20737
vt 0.30158 0.20737
vt 0.30158 0.24382
vt 0.30158 0.20737
vt 0.34943 0.20737
vt 0.34943 0.24382
vt 0.34943 0.20737
vt 0.39772 0.20737
vt 0.39772 0.24382
vt 0.34943 0.24382
vt 0.34943 0.20737
vt 0.30158 0.20737
vt 0.30158 0.17089
vt 0.34943 0.17089
vt 0.34943 0.20737
vt 0.34943 0.17089
vt 0.39772 0.17089
vt 0.39772 0.20737
vt 0.39772 0.17089
vt 0.44577 0.17089
vt 0.44577 0.20737
vt 0.39772 0.20737
vt 0.39772 0.17089
vt 0.34943 0.17089
vt 0.34943 0.13598
vt 0.39772 0.13598
vt 0.39772 0.17089
vt 0.39772 0.13598
vt 0.44577 0.13598
vt 0.44577 0.17089
vt 0.44577 0.13598
vt 0.49377 0.13598
vt 0.49377 0.17089
vt 0.44577 0.17089
vt 0.46064 0.71441
vt 0.43485 0.75529
vt 0.40908 0.73555
vt 0.43069 0.70011
vt 0.46064 0.71441
vt 0.43069 0.70011
vt 0.44509 0.66187
vt 0.4775 0.66966
vt 0.44509 0.66187
vt 0.45123 0.62144
vt 0.48552 0.6226
vt 0.4775 0.66966
vt 0.44509 0.66187
vt 0.43069 0.70011
vt 0.40248 0.68873
vt 0.41281 0.65427
vt 0.44509 0.66187
vt 0.41281 0.65427
vt 0.41793 0.62071
vt 0.45123 0.62144
vt 0.41793 0.62071
vt 0.41751 0.58603
vt 0.44992 0.5798
vt 0.45123 0.62144
vt 0.41793 0.62071
vt 0.41281 0.65427
vt 0.38249 0.64883
vt 0.38596 0.62067
vt 0.41793 0.62071
vt 0.38596 0.62067
vt 0.38588 0.59141
vt 0.41751 0.58603
vt 0.38588 0.59141
vt 0.3804 0.56205
vt 0.41006 0.54995
vt 0.41751 0.58603
vt 0.38588 0.59141
vt 0.38596 0.62067
vt 0.35417 0.62104
vt 0.35425 0.59608
vt 0.38588 0.59141
vt 0.35425 0.59608
vt 0.35092 0.57171
vt 0.3804 0.56205
vt 0.35092 0.57171
vt 0.34327 0.54777
vt 0.36926 0.53302
vt 0.3804 0.56205
vt 0.35092 0.57171
vt 0.35425 0.59608
vt 0.3249 0.5991
vt 0.32494 0.57806
vt 0.35092 0.57171
vt 0.32494 0.57806
vt 0.3216 0.56048
vt 0.34327 0.54777
vt 0.3216 0.56048
vt 0.3161 0.5434
vt 0.32799 0.52893
vt 0.34327 0.54777
vt 0.03077 0.25313
vt 0.04943 0.25313
vt 0.04943 0.28472
vt 0.03077 0.28472
vt 0.03077 0.25313
vt 0.03077 0.28472
vt 0.01337 0.28472
vt 0.01337 0.25313
vt 0.54796 0.28472
vt 0.53034 0.28472
vt 0.53034 0.25313
vt 0.54796 0.25313
vt 0.01337 0.28472
vt 0.03077 0.28472
vt 0.03077 0.32049
vt 0.01337 0.32049
vt 0.54796 0.28472
vt 0.54796 0.32049
vt 0.53034 0.32049
vt 0.53034 0.28472
vt 0.53034 0.32049
vt 0.5121 0.32049
vt 0.5121 0.28472
vt 0.53034 0.28472
vt 0.53034 0.32049
vt 0.54796 0.32049
vt 0.54796 0.35305
vt 0.53034 0.35305
vt 0.53034 0.32049
vt 0.53034 0.35305
vt 0.5121 0.35305
vt 0.5121 0.32049
vt 0.5121 0.35305
vt 0.49143 0.35305
vt 0.49143 0.32049
vt 0.5121 0.32049
vt 0.71474 0.53465
vt 0.69537 0.53908
vt 0.68481 0.51642
vt 0.70632 0.50678
vt 0.71474 0.53465
vt 0.70632 0.50678
vt 0.73047 0.50135
vt 0.73403 0.53157
vt 0.73047 0.50135
vt 0.7557 0.50008
vt 0.75447 0.53394
vt 0.73403 0.53157
vt 0.73047 0.50135
vt 0.70632 0.50678
vt 0.69539 0.4785
vt 0.72467 0.47005
vt 0.73047 0.50135
vt 0.72467 0.47005
vt 0.75482 0.46771
vt 0.7557 0.50008
vt 0.75482 0.46771
vt 0.78473 0.47087
vt 0.77998 0.50244
vt 0.7557 0.50008
vt 0.75482 0.46771
vt 0.72467 0.47005
vt 0.71694 0.43917
vt 0.75331 0.43563
vt 0.75482 0.46771
vt 0.75331 0.43563
vt 0.78953 0.4401
vt 0.78473 0.47087
vt 0.78953 0.4401
vt 0.82559 0.45065
vt 0.81461 0.47877
vt 0.78473 0.47087
vt 0.78953 0.4401
vt 0.75331 0.43563
vt 0.75239 0.40377
vt 0.79608 0.40972
vt 0.78953 0.4401
vt 0.79608 0.40972
vt 0.83785 0.42363
vt 0.82559 0.45065
vt 0.83785 0.42363
vt 0.87634 0.4466
vt 0.85859 0.46927
vt 0.82559 0.45065
vt 0.83785 0.42363
vt 0.79608 0.40972
vt 0.80383 0.37528
vt 0.85251 0.39281
vt 0.83785 0.42363
vt 0.85251 0.39281
vt 0.89713 0.41994
vt 0.87634 0.4466
vt 0.89713 0.41994
vt 0.93413 0.45652
vt 0.90786 0.47818
vt 0.87634 0.4466
vt 0.37371 0.12798
vt 0.32174 0.12798
vt 0.32174 0.09094
vt 0.37371 0.09094
vt 0.37371 0.12798
vt 0.37371 0.09094
vt 0.42534 0.09094
vt 0.42534 0.12798
vt 0.42534 0.09094
vt 0.47615 0.09094
vt 0.47615 0.12798
vt 0.42534 0.12798
vt 0.42534 0.09094
vt 0.37371 0.09094
vt 0.37371 0.05474
vt 0.42534 0.05474
vt 0.42534 0.09094
vt 0.42534 0.05474
vt 0.47615 0.05474
vt 0.47615 0.09094
vt 0.47615 0.05474
vt 0.52638 0.05474
vt 0.52638 0.09094
vt 0.47615 0.09094
vt 0.47615 0.05474
vt 0.42534 0.05474
vt 0.42534 0.0196
vt 0.47615 0.0196
vt 0.47615 0.05474
vt 0.47615 0.0196
vt 0.52638 0.0196
vt 0.52638 0.05474
vt 0.52638 0.0196
vt 0.57643 0.0196
vt 0.57643 0.05474
vt 0.52638 0.05474
vt 0.01506 0.55585
vt 0.03058 0.50781
vt 0.06192 0.52188
vt 0.04785 0.56311
vt 0.01506 0.55585
vt 0.04785 0.56311
vt 0.04296 0.60622
vt 0.00911 0.60577
vt 0.04296 0.60622
vt 0.04751 0.64854
vt 0.01564 0.65561
vt 0.00911 0.60577
vt 0.04296 0.60622
vt 0.04785 0.56311
vt 0.08033 0.57074
vt 0.07647 0.60675
vt 0.04296 0.60622
vt 0.07647 0.60675
vt 0.07974 0.64284
vt 0.04751 0.64854
vt 0.07974 0.64284
vt 0.09055 0.67759
vt 0.06107 0.68944
vt 0.04751 0.64854
vt 0.07974 0.64284
vt 0.07647 0.60675
vt 0.1091 0.60758
vt 0.11184 0.63745
vt 0.07974 0.64284
vt 0.11184 0.63745
vt 0.11989 0.6651
vt 0.09055 0.67759
vt 0.11989 0.6651
vt 0.13219 0.69227
vt 0.10782 0.70879
vt 0.09055 0.67759
vt 0.11989 0.6651
vt 0.11184 0.63745
vt 0.14382 0.63318
vt 0.14861 0.65527
vt 0.11989 0.6651
vt 0.14861 0.65527
vt 0.15693 0.67461
vt 0.13219 0.69227
vt 0.15693 0.67461
vt 0.16976 0.69133
vt 0.15098 0.71387
vt 0.13219 0.69227
vt 0.15693 0.67461
vt 0.14861 0.65527
vt 0.17554 0.64767
vt 0.17828 0.66188
vt 0.15693 0.67461
vt 0.17828 0.66188
vt 0.18508 0.674
vt 0.16976 0.69133
vt 0.18508 0.674
vt 0.19946 0.67758
vt 0.19015 0.70038
vt 0.16976 0.69133
vt 0.27548 0.25313
vt 0.29004 0.25313
vt 0.29004 0.28472
vt 0.27548 0.28472
vt 0.27548 0.25313
vt 0.27548 0.28472
vt 0.26041 0.28472
vt 0.26041 0.25313
vt 0.27548 0.28472
vt 0.29004 0.28472
vt 0.29004 0.32049
vt 0.27548 0.32049
vt 0.27548 0.28472
vt 0.27548 0.32049
vt 0.26041 0.32049
vt 0.26041 0.28472
vt 0.26041 0.32049
vt 0.24382 0.32049
vt 0.24382 0.28472
vt 0.26041 0.28472
vt 0.26041 0.32049
vt 0.27548 0.32049
vt 0.27548 0.35305
vt 0.26041 0.35305
vt 0.26041 0.32049
vt 0.26041 0.35305
vt 0.24382 0.35305
vt 0.24382 0.32049
vt 0.24382 0.35305
vt 0.22313 0.35305
vt 0.22313 0.32049
vt 0.24382 0.32049
vt 0.78335 0.67876
vt 0.80053 0.67563
vt 0.81074 0.69892
vt 0.78991 0.70648
vt 0.78335 0.67876
vt 0.78991 0.70648
vt 0.76586 0.71031
vt 0.76334 0.68093
vt 0.76586 0.71031
vt 0.74019 0.71062
vt 0.7417 0.67786
vt 0.76334 0.68093
vt 0.76586 0.71031
vt 0.78991 0.70648
vt 0.79853 0.73605
vt 0.76969 0.74196
vt 0.76586 0.71031
vt 0.76969 0.74196
vt 0.74014 0.74279
vt 0.74019 0.71062
vt 0.74014 0.74279
vt 0.71145 0.73951
vt 0.71571 0.70794
vt 0.74019 0.71062
vt 0.74014 0.74279
vt 0.76969 0.74196
vt 0.77418 0.77385
vt 0.73957 0.775
vt 0.74014 0.74279
vt 0.73957 0.775
vt 0.70604 0.77018
vt 0.71145 0.73951
vt 0.29004 0.25313
vt 0.3051 0.25313
vt 0.3051 0.28472
vt 0.29004 0.28472
vt 0.16976 0.69133
vt 0.19015 0.70038
vt 0.17585 0.72824
vt 0.15098 0.71387
vt 0.14861 0.65527
vt 0.14382 0.63318
vt 0.17356 0.6295
vt 0.17554 0.64767
vt 0.13219 0.69227
vt 0.15098 0.71387
vt 0.13181 0.736
vt 0.10782 0.70879
vt 0.11184 0.63745
vt 0.1091 0.60758
vt 0.14172 0.60828
vt 0.14382 0.63318
vt 0.09055 0.67759
vt 0.10782 0.70879
vt 0.08228 0.72695
vt 0.06107 0.68944
vt 0.07647 0.60675
vt 0.08033 0.57074
vt 0.11191 0.57763
vt 0.1091 0.60758
vt 0.04751 0.64854
vt 0.06107 0.68944
vt 0.03103 0.70285
vt 0.01564 0.65561
vt 0.04785 0.56311
vt 0.06192 0.52188
vt 0.09096 0.53473
vt 0.08033 0.57074
vt 0.57643 0.0196
vt 0.62619 0.0196
vt 0.62619 0.05474
vt 0.57643 0.05474
vt 0.03058 0.50781
vt 0.05654 0.46373
vt 0.08402 0.48433
vt 0.06192 0.52188
vt 0.52638 0.05474
vt 0.57643 0.05474
vt 0.57643 0.09094
vt 0.52638 0.09094
vt 0.42534 0.05474
vt 0.37371 0.05474
vt 0.37371 0.0196
vt 0.42534 0.0196
vt 0.47615 0.09094
vt 0.52638 0.09094
vt 0.52638 0.12798
vt 0.47615 0.12798
vt 0.37371 0.09094
vt 0.32174 0.09094
vt 0.32174 0.05474
vt 0.37371 0.05474
vt 0.93413 0.45652
vt 0.96202 0.49924
vt 0.93077 0.5149
vt 0.90786 0.47818
vt 0.32174 0.12798
vt 0.27 0.12798
vt 0.27 0.09094
vt 0.32174 0.09094
vt 0.87634 0.4466
vt 0.90786 0.47818
vt 0.88503 0.49667
vt 0.85859 0.46927
vt 0.79608 0.40972
vt 0.75239 0.40377
vt 0.75239 0.369
vt 0.80383 0.37528
vt 0.82559 0.45065
vt 0.85859 0.46927
vt 0.8407 0.49275
vt 0.81461 0.47877
vt 0.75331 0.43563
vt 0.71694 0.43917
vt 0.70868 0.40778
vt 0.75239 0.40377
vt 0.78473 0.47087
vt 0.81461 0.47877
vt 0.80221 0.50802
vt 0.77998 0.50244
vt 0.72467 0.47005
vt 0.69539 0.4785
vt 0.68213 0.45054
vt 0.71694 0.43917
vt 0.7557 0.50008
vt 0.77998 0.50244
vt 0.77601 0.53574
vt 0.75447 0.53394
vt 0.70632 0.50678
vt 0.68481 0.51642
vt 0.66867 0.49266
vt 0.69539 0.4785
vt 0.49143 0.35305
vt 0.46948 0.35305
vt 0.46948 0.32049
vt 0.49143 0.32049
vt 0.69537 0.53908
vt 0.67916 0.54494
vt 0.66725 0.53054
vt 0.68481 0.51642
vt 0.5121 0.32049
vt 0.49143 0.32049
vt 0.49143 0.28472
vt 0.5121 0.28472
vt 0.01337 0.32049
vt 0.03077 0.32049
vt 0.03077 0.35305
vt 0.01337 0.35305
vt 0.53034 0.28472
vt 0.5121 0.28472
vt 0.5121 0.25313
vt 0.53034 0.25313
vt 0.03077 0.28472
vt 0.04943 0.28472
vt 0.04943 0.32049
vt 0.03077 0.32049
vt 0.3161 0.5434
vt 0.2997 0.53742
vt 0.31042 0.51606
vt 0.32799 0.52893
vt 0.04943 0.25313
vt 0.07039 0.25313
vt 0.07039 0.28472
vt 0.04943 0.28472
vt 0.34327 0.54777
vt 0.32799 0.52893
vt 0.35147 0.50882
vt 0.36926 0.53302
vt 0.35425 0.59608
vt 0.35417 0.62104
vt 0.3241 0.62122
vt 0.3249 0.5991
vt 0.3804 0.56205
vt 0.36926 0.53302
vt 0.39471 0.51694
vt 0.41006 0.54995
vt 0.38596 0.62067
vt 0.38249 0.64883
vt 0.35207 0.64425
vt 0.35417 0.62104
vt 0.41751 0.58603
vt 0.41006 0.54995
vt 0.43921 0.53887
vt 0.44992 0.5798
vt 0.41281 0.65427
vt 0.40248 0.68873
vt 0.37517 0.67585
vt 0.38249 0.64883
vt 0.45123 0.62144
vt 0.44992 0.5798
vt 0.48295 0.5745
vt 0.48552 0.6226
vt 0.43069 0.70011
vt 0.40908 0.73555
vt 0.38569 0.71799
vt 0.40248 0.68873
vt 0.49377 0.13598
vt 0.54167 0.13598
vt 0.54167 0.17089
vt 0.49377 0.17089
vt 0.43485 0.75529
vt 0.40114 0.79063
vt 0.37949 0.76529
vt 0.40908 0.73555
vt 0.44577 0.17089
vt 0.49377 0.17089
vt 0.49377 0.20737
vt 0.44577 0.20737
vt 0.34943 0.17089
vt 0.30158 0.17089
vt 0.30158 0.13598
vt 0.34943 0.13598
vt 0.39772 0.20737
vt 0.44577 0.20737
vt 0.44577 0.24382
vt 0.39772 0.24382
vt 0.30158 0.20737
vt 0.25431 0.20737
vt 0.25431 0.17089
vt 0.30158 0.17089
vt 0.60454 0.79497
vt 0.56952 0.76145
vt 0.59541 0.73996
vt 0.6249 0.76803
vt 0.70604 0.77018
vt 0.6723 0.76016
vt 0.68354 0.7319
vt 0.71145 0.73951
vt 0.65985 0.78873
vt 0.6249 0.76803
vt 0.64296 0.744
vt 0.6723 0.76016
vt 0.1599 0.24382
vt 0.11194 0.24382
vt 0.11194 0.20737
vt 0.1599 0.20737
vt 0.81905 0.79596
vt 0.85711 0.77748
vt 0.87496 0.8057
vt 0.83116 0.82751
vt 0.84153 0.75081
vt 0.87024 0.72956
vt 0.89133 0.75163
vt 0.85711 0.77748
vt 0.84988 0.70789
vt 0.86831 0.68582
vt 0.8933 0.70181
vt 0.87024 0.72956
vt 0.84343 0.66848
vt 0.85209 0.64849
vt 0.88071 0.6582
vt 0.86831 0.68582
vt 0.82337 0.64213
vt 0.8263 0.62277
vt 0.85681 0.62554
vt 0.85209 0.64849
vt 0.32382 0.32049
vt 0.34454 0.32049
vt 0.34454 0.35305
vt 0.32382 0.35305
vt 0.34454 0.28472
vt 0.3654 0.28472
vt 0.3654 0.32049
vt 0.34454 0.32049
vt 0.3654 0.25313
vt 0.38413 0.25313
vt 0.38413 0.28472
vt 0.3654 0.28472
vt 0.1494 0.56049
vt 0.15951 0.54024
vt 0.17663 0.55191
vt 0.1761 0.56888
vt 0.13452 0.52186
vt 0.15477 0.50093
vt 0.17402 0.52423
vt 0.15951 0.54024
vt 0.13491 0.47709
vt 0.16534 0.45651
vt 0.17894 0.48419
vt 0.15477 0.50093
vt 0.151 0.42822
vt 0.19175 0.41089
vt 0.20042 0.44256
vt 0.16534 0.45651
vt 0.18254 0.37721
vt 0.23371 0.36858
vt 0.23522 0.40242
vt 0.19175 0.41089
vt 0.21823 0.05474
vt 0.16678 0.05474
vt 0.16678 0.0196
vt 0.21823 0.0196
vt 0.16678 0.09094
vt 0.11542 0.09094
vt 0.11542 0.05474
vt 0.16678 0.05474
vt 0.11542 0.12798
vt 0.06418 0.12798
vt 0.06418 0.09094
vt 0.11542 0.09094
vt 0.63018 0.44436
vt 0.59864 0.47388
vt 0.57122 0.44971
vt 0.6088 0.41649
vt 0.62225 0.49377
vt 0.60161 0.52359
vt 0.57436 0.50827
vt 0.59864 0.47388
vt 0.62768 0.53809
vt 0.61714 0.56729
vt 0.58763 0.55654
vt 0.60161 0.52359
vt 0.64531 0.57547
vt 0.64206 0.60002
vt 0.61185 0.59673
vt 0.61714 0.56729
vt 0.67226 0.6017
vt 0.67389 0.62342
vt 0.64261 0.6251
vt 0.64206 0.60002
vt 0.0924 0.32049
vt 0.1119 0.32049
vt 0.1119 0.35305
vt 0.0924 0.35305
vt 0.1119 0.28472
vt 0.12634 0.28472
vt 0.12634 0.32049
vt 0.1119 0.32049
vt 0.12634 0.25313
vt 0.13783 0.25313
vt 0.13783 0.28472
vt 0.12634 0.28472
vt 0.33973 0.68285
vt 0.32679 0.69512
vt 0.31132 0.67351
vt 0.319 0.66721
vt 0.34354 0.71962
vt 0.31928 0.73054
vt 0.30667 0.70057
vt 0.32679 0.69512
vt 0.33099 0.75964
vt 0.29738 0.76947
vt 0.29125 0.73703
vt 0.31928 0.73054
vt 0.30671 0.80172
vt 0.26697 0.8093
vt 0.26444 0.77542
vt 0.29738 0.76947
vt 0.17524 0.83164
vt 0.13017 0.81261
vt 0.1466 0.78383
vt 0.18589 0.79949
vt 0.06311 0.17089
vt 0.01337 0.17089
vt 0.01337 0.13598
vt 0.06311 0.13598
vt 0.7757 0.09094
vt 0.72574 0.09094
vt 0.72574 0.05474
vt 0.7757 0.05474
vt 0.72574 0.12798
vt 0.67586 0.12798
vt 0.67586 0.09094
vt 0.72574 0.09094
vt 0.93886 0.68057
vt 0.94995 0.63936
vt 0.98361 0.64521
vt 0.96978 0.69284
vt 0.91826 0.63386
vt 0.92033 0.5983
vt 0.95296 0.59724
vt 0.94995 0.63936
vt 0.8887 0.59961
vt 0.88488 0.57018
vt 0.91545 0.56314
vt 0.92033 0.5983
vt 0.85497 0.57627
vt 0.84836 0.55351
vt 0.87571 0.54202
vt 0.88488 0.57018
vt 0.82116 0.56304
vt 0.81874 0.54602
vt 0.83727 0.53223
vt 0.84836 0.55351
vt 0.40066 0.32049
vt 0.41455 0.32049
vt 0.41455 0.35305
vt 0.40066 0.35305
vt 0.41455 0.28472
vt 0.43085 0.28472
vt 0.43085 0.32049
vt 0.41455 0.32049
vt 0.43085 0.25313
vt 0.44844 0.25313
vt 0.44844 0.28472
vt 0.43085 0.28472
vt 0.21463 0.50425
vt 0.23949 0.50125
vt 0.2408 0.53405
vt 0.21967 0.53621
vt 0.2384 0.46841
vt 0.26907 0.46977
vt 0.26481 0.50253
vt 0.23949 0.50125
vt 0.27398 0.43722
vt 0.30957 0.44667
vt 0.29859 0.47693
vt 0.26907 0.46977
vt 0.32186 0.41587
vt 0.36073 0.43702
vt 0.34196 0.46361
vt 0.30957 0.44667
vt 0.38017 0.4088
vt 0.41907 0.44162
vt 0.39411 0.46605
vt 0.36073 0.43702
vt 0.73702 0.17089
vt 0.68678 0.17089
vt 0.68678 0.13598
vt 0.73702 0.13598
vt 0.68678 0.20737
vt 0.63785 0.20737
vt 0.63785 0.17089
vt 0.68678 0.17089
vt 0.63785 0.24382
vt 0.59014 0.24382
vt 0.59014 0.20737
vt 0.63785 0.20737
vt 0.54898 0.58731
vt 0.54815 0.6284
vt 0.51414 0.63028
vt 0.51452 0.58245
vt 0.58074 0.62716
vt 0.58652 0.66072
vt 0.55542 0.66856
vt 0.54815 0.6284
vt 0.61655 0.6544
vt 0.62613 0.67996
vt 0.59827 0.6944
vt 0.58652 0.66072
vt 0.65268 0.66751
vt 0.66245 0.68296
vt 0.64083 0.70313
vt 0.62613 0.67996
vt 0.6822 0.66936
vt 0.68806 0.67586
vt 0.67578 0.6955
vt 0.66245 0.68296
vt 0.14752 0.32049
vt 0.15953 0.32049
vt 0.15953 0.35305
vt 0.14752 0.35305
vt 0.15953 0.28472
vt 0.17604 0.28472
vt 0.17604 0.32049
vt 0.15953 0.32049
vt 0.17604 0.25313
vt 0.19919 0.25313
vt 0.19919 0.28472
vt 0.17604 0.28472
vt 0.2622 0.70711
vt 0.23621 0.70796
vt 0.2375 0.68058
vt 0.2605 0.67353
f 1/1 2/2 3/3 4/4
f 1/5 5/6 6/7 7/8
f 7/9 8/10 2/11 1/12
f 4/13 9/14 5/15 1/16
f 5/17 9/18 10/19 11/20
f 4/21 12/22 13/23 9/24
f 9/25 13/26 14/27 10/28
f 14/29 15/30 16/31 10/32
f 14/33 13/34 17/35 18/36
f 14/37 18/38 19/39 15/40
f 19/41 20/42 21/43 15/44
f 19/45 18/46 22/47 23/48
f 19/49 23/50 24/51 20/52
f 24/53 25/54 26/55 20/56
f 24/57 23/58 27/59 28/60
f 24/61 28/62 29/63 25/64
f 29/65 30/66 31/67 25/68
f 29/69 28/70 32/71 33/72
f 29/73 33/74 34/75 30/76
f 34/77 35/78 36/79 30/80
f 34/81 33/82 37/83 38/84
f 34/85 38/86 39/87 35/88
f 39/89 40/90 41/91 35/92
f 39/93 38/94 42/95 43/96
f 39/97 43/98 44/99 40/100
f 44/101 45/102 46/103 40/104
f 44/105 43/106 47/107 48/108
f 44/109 48/110 49/111 45/112
f 49/113 50/114 51/115 45/116
f 49/117 48/118 52/119 53/120
f 49/121 53/122 54/123 50/124
f 54/125 55/126 56/127 50/128
f 54/129 53/130 57/131 58/132
f 54/133 58/134 59/135 55/136
f 59/137 60/138 61/139 55/140
f 59/141 58/142 62/143 63/144
f 59/145 63/146 64/147 60/148
f 64/149 65/150 66/151 60/152
f 64/153 63/154 67/155 68/156
f 64/157 68/158 69/159 65/160
f 69/161 70/162 71/163 65/164
f 69/165 68/166 72/167 73/168
f 69/169 73/170 74/171 70/172
f 74/173 75/174 76/175 70/176
f 74/177 73/178 77/179 78/180
f 74/181 78/182 79/183 75/184
f 79/185 80/186 81/187 75/188
f 79/189 78/190 82/191 83/192
f 79/193 83/194 84/195 80/196
f 84/197 85/198 86/199 80/200
f 84/201 83/202 87/203 88/204
f 84/205 88/206 89/207 85/208
f 89/209 90/210 91/211 85/212
f 89/213 88/214 92/215 93/216
f 89/217 93/218 94/219 90/220
f 94/221 95/222 96/223 90/224
f 94/225 93/226 97/227 98/228
f 94/229 98/230 99/231 95/232
f 99/233 100/234 101/235 95/236
f 99/237 98/238 102/239 103/240
f 99/241 103/242 104/243 100/244
f 104/245 105/246 106/247 100/248
f 104/249 103/250 107/251 108/252
f 104/253 108/254 109/255 105/256
f 109/257 110/258 111/259 105/260
f 109/261 108/262 112/263 113/264
f 109/265 113/266 114/267 110/268
f 114/269 115/270 116/271 110/272
f 114/273 113/274 117/275 118/276
f 114/277 118/278 119/279 115/280
f 119/281 120/282 121/283 115/284
f 119/285 118/286 122/287 123/288
f 119/289 123/290 124/291 120/292
f 124/293 125/294 126/295 120/296
f 124/297 123/298 127/299 128/300
f 124/301 128/302 129/303 125/304
f 129/305 130/306 131/307 125/308
f 129/309 128/310 132/311 133/312
f 129/313 133/314 134/315 130/316
f 134/317 135/318 136/319 130/320
f 134/321 133/322 137/323 138/324
f 134/325 138/326 139/327 135/328
f 139/329 140/330 141/331 135/332
f 139/333 138/334 142/335 143/336
f 139/337 143/338 144/339 140/340
f 144/341 145/342 146/343 140/344
f 144/345 143/346 147/347 148/348
f 144/349 148/350 149/351 145/352
f 149/353 150/354 151/355 145/356
f 149/357 148/358 152/359 153/360
f 149/361 153/362 154/363 150/364
f 154/365 155/366 156/367 150/368
f 154/369 153/370 8/371 7/372
f 154/373 7/374 6/375 155/376
f 156/377 157/378 158/379 159/380
f 156/381 159/382 151/383 150/384
f 156/385 155/386 160/387 157/388
f 160/389 161/390 162/391 157/392
f 160/393 155/394 6/395 163/396
f 160/397 163/398 164/399 161/400
f 164/401 165/402 166/403 161/404
f 164/405 163/406 11/407 167/408
f 164/409 167/410 168/411 165/412
f 168/413 169/414 170/415 165/416
f 168/417 167/418 16/419 171/420
f 168/421 171/422 172/423 169/424
f 172/425 173/426 174/427 169/428
f 172/429 171/430 21/431 175/432
f 172/433 175/434 176/435 173/436
f 176/437 177/438 178/439 173/440
f 176/441 175/442 26/443 179/444
f 176/445 179/446 180/447 177/448
f 180/449 181/450 182/451 177/452
f 180/453 179/454 31/455 183/456
f 180/457 183/458 184/459 181/460
f 184/461 185/462 186/463 181/464
f 184/465 183/466 36/467 187/468
f 184/469 187/470 188/471 185/472
f 188/473 189/474 190/475 185/476
f 188/477 187/478 41/479 191/480
f 188/481 191/482 192/483 189/484
f 192/485 193/486 194/487 189/488
f 192/489 191/490 46/491 195/492
f 192/493 195/494 196/495 193/496
f 196/497 197/498 198/499 193/500
f 196/501 195/502 51/503 199/504
f 196/505 199/506 200/507 197/508
f 200/509 201/510 202/511 197/512
f 200/513 199/514 56/515 203/516
f 200/517 203/518 204/519 201/520
f 204/521 205/522 206/523 201/524
f 204/525 203/526 61/527 207/528
f 204/529 207/530 208/531 205/532
f 208/533 209/534 210/535 205/536
f 208/537 207/538 66/539 211/540
f 208/541 211/542 212/543 209/544
f 212/545 213/546 214/547 209/548
f 212/549 211/550 71/551 215/552
f 212/553 215/554 216/555 213/556
f 216/557 217/558 218/559 213/560
f 216/561 215/562 76/563 219/564
f 216/565 219/566 220/567 217/568
f 220/569 221/570 222/571 217/572
f 220/573 219/574 81/575 223/576
f 220/577 223/578 224/579 221/580
f 224/581 225/582 226/583 221/584
f 224/585 223/586 86/587 227/588
f 224/589 227/590 228/591 225/592
f 228/593 229/594 230/595 225/596
f 228/597 227/598 91/599 231/600
f 228/601 231/602 232/603 229/604
f 232/605 233/606 234/607 229/608
f 232/609 231/610 96/611 235/612
f 232/613 235/614 236/615 233/616
f 236/617 237/618 238/619 233/620
f 236/621 235/622 101/623 239/624
f 236/625 239/626 240/627 237/628
f 240/629 241/630 242/631 237/632
f 240/633 239/634 106/635 243/636
f 240/637 243/638 244/639 241/640
f 244/641 245/642 246/643 241/644
f 244/645 243/646 111/647 247/648
f 244/649 247/650 248/651 245/652
f 248/653 249/654 250/655 245/656
f 248/657 247/658 116/659 251/660
f 248/661 251/662 252/663 249/664
f 252/665 253/666 254/667 249/668
f 252/669 251/670 121/671 255/672
f 252/673 255/674 256/675 253/676
f 256/677 257/678 258/679 253/680
f 256/681 255/682 126/683 259/684
f 256/685 259/686 260/687 257/688
f 260/689 261/690 262/691 257/692
f 260/693 259/694 131/695 263/696
f 260/697 263/698 264/699 261/700
f 264/701 265/702 266/703 261/704
f 264/705 263/706 136/707 267/708
f 264/709 267/710 268/711 265/712
f 268/713 269/714 270/715 265/716
f 268/717 267/718 141/719 271/720
f 268/721 271/722 272/723 269/724
f 272/725 273/726 274/727 269/728
f 272/729 271/730 146/731 275/732
f 272/733 275/734 276/735 273/736
f 276/737 277/738 278/739 273/740
f 276/741 275/742 151/743 159/744
f 276/745 159/746 158/747 277/748
f 278/749 279/750 280/751 281/752
f 278/753 281/754 274/755 273/756
f 278/757 277/758 282/759 279/760
f 282/761 283/762 284/763 279/764
f 282/765 277/766 158/767 285/768
f 282/769 285/770 286/771 283/772
f 286/773 287/774 288/775 283/776
f 286/777 285/778 162/779 289/780
f 286/781 289/782 290/783 287/784
f 290/785 291/786 292/787 287/788
f 290/789 289/790 166/791 293/792
f 290/793 293/794 294/795 291/796
f 294/797 295/798 296/799 291/800
f 294/801 293/802 170/803 297/804
f 294/805 297/806 298/807 295/808
f 298/809 299/810 300/811 295/812
f 298/813 297/814 174/815 301/816
f 298/817 301/818 302/819 299/820
f 302/821 303/822 304/823 299/824
f 302/825 301/826 178/827 305/828
f 302/829 305/830 306/831 303/832
f 306/833 307/834 308/835 303/836
f 306/837 305/838 182/839 309/840
f 306/841 309/842 310/843 307/844
f 310/845 311/846 312/847 307/848
f 310/849 309/850 186/851 313/852
f 310/853 313/854 314/855 311/856
f 314/857 315/858 316/859 311/860
f 314/861 313/862 190/863 317/864
f 314/865 317/866 318/867 315/868
f 318/869 319/870 320/871 315/872
f 318/873 317/874 194/875 321/876
f 318/877 321/878 322/879 319/880
f 322/881 323/882 324/883 319/884
f 322/885 321/886 198/887 325/888
f 322/889 325/890 326/891 323/892
f 326/893 327/894 328/895 323/896
f 326/897 325/898 202/899 329/900
f 326/901 329/902 330/903 327/904
f 330/905 331/906 332/907 327/908
f 330/909 329/910 206/911 333/912
f 330/913 333/914 334/915 331/916
f 334/917 335/918 336/919 331/920
f 334/921 333/922 210/923 337/924
f 334/925 337/926 338/927 335/928
f 338/929 339/930 340/931 335/932
f 338/933 337/934 214/935 341/936
f 338/937 341/938 342/939 339/940
f 342/941 343/942 344/943 339/944
f 342/945 341/946 218/947 345/948
f 342/949 345/950 346/951 343/952
f 346/953 347/954 348/955 343/956
f 346/957 345/958 222/959 349/960
f 346/961 349/962 350/963 347/964
f 350/965 351/966 352/967 347/968
f 350/969 349/970 226/971 353/972
f 350/973 353/974 354/975 351/976
f 354/977 355/978 356/979 351/980
f 354/981 353/982 230/983 357/984
f 354/985 357/986 358/987 355/988
f 358/989 359/990 360/991 355/992
f 358/993 357/994 234/995 361/996
f 358/997 361/998 362/999 359/1000
f 362/1001 363/1002 364/1003 359/1004
f 362/1005 361/1006 238/1007 365/1008
f 362/1009 365/1010 366/1011 363/1012
f 366/1013 367/1014 368/1015 363/1016
f 366/1017 365/1018 242/1019 369/1020
f 366/1021 369/1022 370/1023 367/1024
f 370/1025 371/1026 372/1027 367/1028
f 370/1029 369/1030 246/1031 373/1032
f 370/1033 373/1034 374/1035 371/1036
f 374/1037 375/1038 376/1039 371/1040
f 374/1041 373/1042 250/1043 377/1044
f 374/1045 377/1046 378/1047 375/1048
f 378/1049 379/1050 380/1051 375/1052
f 378/1053 377/1054 254/1055 381/1056
f 378/1057 381/1058 382/1059 379/1060
f 382/1061 383/1062 384/1063 379/1064
f 382/1065 381/1066 258/1067 385/1068
f 382/1069 385/1070 386/1071 383/1072
f 386/1073 387/1074 388/1075 383/1076
f 386/1077 385/1078 262/1079 389/1080
f 386/1081 389/1082 390/1083 387/1084
f 390/1085 391/1086 392/1087 387/1088
f 390/1089 389/1090 266/1091 393/1092
f 390/1093 393/1094 394/1095 391/1096
f 394/1097 395/1098 396/1099 391/1100
f 394/1101 393/1102 270/1103 397/1104
f 394/1105 397/1106 398/1107 395/1108
f 398/1109 399/1110 400/1111 395/1112
f 398/1113 397/1114 274/1115 281/1116
f 398/1117 281/1118 280/1119 399/1120
f 400/1121 401/1122 32/1123 402/1124
f 400/1125 402/1126 396/1127 395/1128
f 400/1129 399/1130 403/1131 401/1132
f 403/1133 404/1134 37/1135 401/1136
f 403/1137 399/1138 280/1139 405/1140
f 403/1141 405/1142 406/1143 404/1144
f 406/1145 407/1146 42/1147 404/1148
f 406/1149 405/1150 284/1151 408/1152
f 406/1153 408/1154 409/1155 407/1156
f 409/1157 410/1158 47/1159 407/1160
f 409/1161 408/1162 288/1163 411/1164
f 409/1165 411/1166 412/1167 410/1168
f 412/1169 413/1170 52/1171 410/1172
f 412/1173 411/1174 292/1175 414/1176
f 412/1177 414/1178 415/1179 413/1180
f 415/1181 416/1182 57/1183 413/1184
f 415/1185 414/1186 296/1187 417/1188
f 415/1189 417/1190 418/1191 416/1192
f 418/1193 419/1194 62/1195 416/1196
f 418/1197 417/1198 300/1199 420/1200
f 418/1201 420/1202 421/1203 419/1204
f 421/1205 422/1206 67/1207 419/1208
f 421/1209 420/1210 304/1211 423/1212
f 421/1213 423/1214 424/1215 422/1216
f 424/1217 425/1218 72/1219 422/1220
f 424/1221 423/1222 308/1223 426/1224
f 424/1225 426/1226 427/1227 425/1228
f 427/1229 428/1230 77/1231 425/1232
f 427/1233 426/1234 312/1235 429/1236
f 427/1237 429/1238 430/1239 428/1240
f 430/1241 431/1242 82/1243 428/1244
f 430/1245 429/1246 316/1247 432/1248
f 430/1249 432/1250 433/1251 431/1252
f 433/1253 434/1254 87/1255 431/1256
f 433/1257 432/1258 320/1259 435/1260
f 433/1261 435/1262 436/1263 434/1264
f 436/1265 437/1266 92/1267 434/1268
f 436/1269 435/1270 324/1271 438/1272
f 436/1273 438/1274 439/1275 437/1276
f 439/1277 440/1278 97/1279 437/1280
f 439/1281 438/1282 328/1283 441/1284
f 439/1285 441/1286 442/1287 440/1288
f 442/1289 443/1290 102/1291 440/1292
f 442/1293 441/1294 332/1295 444/1296
f 442/1297 444/1298 445/1299 443/1300
f 445/1301 446/1302 107/1303 443/1304
f 445/1305 444/1306 336/1307 447/1308
f 445/1309 447/1310 448/1311 446/1312
f 448/1313 449/1314 112/1315 446/1316
f 448/1317 447/1318 340/1319 450/1320
f 448/1321 450/1322 451/1323 449/1324
f 451/1325 452/1326 117/1327 449/1328
f 451/1329 450/1330 344/1331 453/1332
f 451/1333 453/1334 454/1335 452/1336
f 454/1337 455/1338 122/1339 452/1340
f 454/1341 453/1342 348/1343 456/1344
f 454/1345 456/1346 457/1347 455/1348
f 457/1349 458/1350 127/1351 455/1352
f 457/1353 456/1354 352/1355 459/1356
f 457/1357 459/1358 460/1359 458/1360
f 460/1361 461/1362 132/1363 458/1364
f 460/1365 459/1366 356/1367 462/1368
f 460/1369 462/1370 463/1371 461/1372
f 463/1373 464/1374 137/1375 461/1376
f 463/1377 462/1378 360/1379 465/1380
f 463/1381 465/1382 466/1383 464/1384
f 466/1385 467/1386 142/1387 464/1388
f 466/1389 465/1390 364/1391 468/1392
f 466/1393 468/1394 469/1395 467/1396
f 469/1397 470/1398 147/1399 467/1400
f 469/1401 468/1402 368/1403 471/1404
f 469/1405 471/1406 472/1407 470/1408
f 472/1409 473/1410 152/1411 470/1412
f 472/1413 471/1414 372/1415 474/1416
f 472/1417 474/1418 475/1419 473/1420
f 475/1421 2/1422 8/1423 473/1424
f 475/1425 474/1426 376/1427 476/1428
f 475/1429 476/1430 3/1431 2/1432
f 476/1433 376/1434 375/1435 380/1436
f 476/1437 380/1438 477/1439 3/1440
f 477/1441 12/1442 4/1443 3/1444
f 477/1445 380/1446 379/1447 384/1448
f 477/1449 384/1450 478/1451 12/1452
f 478/1453 17/1454 13/1455 12/1456
f 478/1457 384/1458 383/1459 388/1460
f 478/1461 388/1462 479/1463 17/1464
f 479/1465 22/1466 18/1467 17/1468
f 479/1469 388/1470 387/1471 392/1472
f 479/1473 392/1474 480/1475 22/1476
f 480/1477 27/1478 23/1479 22/1480
f 480/1481 392/1482 391/1483 396/1484
f 480/1485 396/1486 402/1487 27/1488
f 474/1489 372/1490 371/1491 376/1492
f 473/1493 8/1494 153/1495 152/1496
f 471/1497 368/1498 367/1499 372/1500
f 470/1501 152/1502 148/1503 147/1504
f 468/1505 364/1506 363/1507 368/1508
f 467/1509 147/1510 143/1511 142/1512
f 465/1513 360/1514 359/1515 364/1516
f 464/1517 142/1518 138/1519 137/1520
f 462/1521 356/1522 355/1523 360/1524
f 461/1525 137/1526 133/1527 132/1528
f 459/1529 352/1530 351/1531 356/1532
f 458/1533 132/1534 128/1535 127/1536
f 456/1537 348/1538 347/1539 352/1540
f 455/1541 127/1542 123/1543 122/1544
f 453/1545 344/1546 343/1547 348/1548
f 452/1549 122/1550 118/1551 117/1552
f 450/1553 340/1554 339/1555 344/1556
f 449/1557 117/1558 113/1559 112/1560
f 447/1561 336/1562 335/1563 340/1564
f 446/1565 112/1566 108/1567 107/1568
f 444/1569 332/1570 331/1571 336/1572
f 443/1573 107/1574 103/1575 102/1576
f 441/1577 328/1578 327/1579 332/1580
f 440/1581 102/1582 98/1583 97/1584
f 438/1585 324/1586 323/1587 328/1588
f 437/1589 97/1590 93/1591 92/1592
f 435/1593 320/1594 319/1595 324/1596
f 434/1597 92/1598 88/1599 87/1600
f 432/1601 316/1602 315/1603 320/1604
f 431/1605 87/1606 83/1607 82/1608
f 429/1609 312/1610 311/1611 316/1612
f 428/1613 82/1614 78/1615 77/1616
f 426/1617 308/1618 307/1619 312/1620
f 425/1621 77/1622 73/1623 72/1624
f 423/1625 304/1626 303/1627 308/1628
f 422/1629 72/1630 68/1631 67/1632
f 420/1633 300/1634 299/1635 304/1636
f 419/1637 67/1638 63/1639 62/1640
f 417/1641 296/1642 295/1643 300/1644
f 416/1645 62/1646 58/1647 57/1648
f 414/1649 292/1650 291/1651 296/1652
f 413/1653 57/1654 53/1655 52/1656
f 411/1657 288/1658 287/1659 292/1660
f 410/1661 52/1662 48/1663 47/1664
f 408/1665 284/1666 283/1667 288/1668
f 407/1669 47/1670 43/1671 42/1672
f 405/1673 280/1674 279/1675 284/1676
f 404/1677 42/1678 38/1679 37/1680
f 402/1681 32/1682 28/1683 27/1684
f 401/1685 37/1686 33/1687 32/1688
f 397/1689 270/1690 269/1691 274/1692
f 393/1693 266/1694 265/1695 270/1696
f 389/1697 262/1698 261/1699 266/1700
f 385/1701 258/1702 257/1703 262/1704
f 381/1705 254/1706 253/1707 258/1708
f 377/1709 250/1710 249/1711 254/1712
f 373/1713 246/1714 245/1715 250/1716
f 369/1717 242/1718 241/1719 246/1720
f 365/1721 238/1722 237/1723 242/1724
f 361/1725 234/1726 233/1727 238/1728
f 357/1729 230/1730 229/1731 234/1732
f 353/1733 226/1734 225/1735 230/1736
f 349/1737 222/1738 221/1739 226/1740
f 345/1741 218/1742 217/1743 222/1744
f 341/1745 214/1746 213/1747 218/1748
f 337/1749 210/1750 209/1751 214/1752
f 333/1753 206/1754 205/1755 210/1756
f 329/1757 202/1758 201/1759 206/1760
f 325/1761 198/1762 197/1763 202/1764
f 321/1765 194/1766 193/1767 198/1768
f 317/1769 190/1770 189/1771 194/1772
f 313/1773 186/1774 185/1775 190/1776
f 309/1777 182/1778 181/1779 186/1780
f 305/1781 178/1782 177/1783 182/1784
f 301/1785 174/1786 173/1787 178/1788
f 297/1789 170/1790 169/1791 174/1792
f 293/1793 166/1794 165/1795 170/1796
f 289/1797 162/1798 161/1799 166/1800
f 285/1801 158/1802 157/1803 162/1804
f 275/1805 146/1806 145/1807 151/1808
f 271/1809 141/1810 140/1811 146/1812
f 267/1813 136/1814 135/1815 141/1816
f 263/1817 131/1818 130/1819 136/1820
f 259/1821 126/1822 125/1823 131/1824
f 255/1825 121/1826 120/1827 126/1828
f 251/1829 116/1830 115/1831 121/1832
f 247/1833 111/1834 110/1835 116/1836
f 243/1837 106/1838 105/1839 111/1840
f 239/1841 101/1842 100/1843 106/1844
f 235/1845 96/1846 95/1847 101/1848
f 231/1849 91/1850 90/1851 96/1852
f 227/1853 86/1854 85/1855 91/1856
f 223/1857 81/1858 80/1859 86/1860
f 219/1861 76/1862 75/1863 81/1864
f 215/1865 71/1866 70/1867 76/1868
f 211/1869 66/1870 65/1871 71/1872
f 207/1873 61/1874 60/1875 66/1876
f 203/1877 56/1878 55/1879 61/1880
f 199/1881 51/1882 50/1883 56/1884
f 195/1885 46/1886 45/1887 51/1888
f 191/1889 41/1890 40/1891 46/1892
f 187/1893 36/1894 35/1895 41/1896
f 183/1897 31/1898 30/1899 36/1900
f 179/1901 26/1902 25/1903 31/1904
f 175/1905 21/1906 20/1907 26/1908
f 171/1909 16/1910 15/1911 21/1912
f 167/1913 11/1914 10/1915 16/1916
f 163/1917 6/1918 5/1919 11/1920

 